<?xml version="1.0" standalone="no"?>
<!DOCTYPE svg PUBLIC "-//W3C//DTD SVG 20010904//EN"
 "http://www.w3.org/TR/2001/REC-SVG-20010904/DTD/svg10.dtd">
<svg version="1.0" xmlns="http://www.w3.org/2000/svg"
 width="930.000000pt" height="774.000000pt" viewBox="0 0 930.000000 774.000000"
 preserveAspectRatio="xMidYMid meet">

<g transform="translate(0.000000,774.000000) scale(0.100000,-0.100000)"
fill="#000000" stroke="none">
<path d="M5582 7133 c-69 -34 -102 -100 -102 -203 0 -80 17 -130 59 -171 81
-81 230 -51 270 54 17 43 14 47 -29 47 -22 0 -40 -5 -40 -10 0 -6 -11 -22 -25
-35 -34 -35 -88 -34 -120 1 -41 44 -46 163 -9 219 35 53 115 51 148 -5 14 -24
24 -30 52 -30 29 0 34 4 34 23 0 90 -143 157 -238 110z"/>
<path d="M2920 6930 l0 -211 148 3 147 3 3 38 3 37 -110 0 -111 0 0 50 0 50
95 0 95 0 0 40 0 40 -96 0 -95 0 3 43 3 42 103 3 103 3 -3 32 -3 32 -142 3
-143 3 0 -211z"/>
<path d="M3280 6930 l0 -210 35 0 35 0 0 210 0 210 -35 0 -35 0 0 -210z"/>
<path d="M4430 7105 c0 -34 1 -35 40 -35 39 0 40 1 40 35 0 34 -1 35 -40 35
-39 0 -40 -1 -40 -35z"/>
<path d="M5190 6930 l0 -210 35 0 35 0 0 210 0 210 -35 0 -35 0 0 -210z"/>
<path d="M4040 7070 c0 -29 -4 -40 -15 -40 -10 0 -15 -10 -15 -30 0 -20 5 -30
15 -30 12 0 15 -18 15 -105 0 -126 11 -145 85 -145 43 0 45 1 45 29 0 23 -5
30 -22 33 -22 3 -23 8 -26 95 -3 89 -2 92 20 95 17 2 24 11 26 31 3 23 0 27
-22 27 -24 0 -26 4 -26 40 l0 40 -40 0 -40 0 0 -40z"/>
<path d="M6560 7074 c0 -27 -5 -37 -20 -41 -14 -4 -20 -14 -20 -34 0 -22 5
-29 20 -29 19 0 20 -7 20 -109 0 -128 7 -141 76 -141 42 0 44 1 44 29 0 23 -5
30 -22 33 -22 3 -23 8 -26 96 l-3 92 26 0 c21 0 25 5 25 30 0 25 -4 30 -25 30
-22 0 -25 4 -25 40 0 39 -1 40 -35 40 -34 0 -35 -2 -35 -36z"/>
<path d="M7560 7074 c0 -27 -5 -37 -20 -41 -14 -4 -20 -14 -20 -34 0 -22 5
-29 20 -29 19 0 20 -7 20 -115 0 -129 3 -135 79 -135 39 0 41 2 41 29 0 23 -5
30 -22 33 -22 3 -23 8 -26 96 l-3 92 26 0 c21 0 25 5 25 30 0 25 -4 30 -25 30
-22 0 -25 4 -25 40 0 39 -1 40 -35 40 -34 0 -35 -2 -35 -36z"/>
<path d="M3480 7022 c-46 -23 -70 -72 -70 -145 0 -107 43 -157 135 -157 57 0
95 19 118 59 l18 31 -35 0 c-19 0 -47 -7 -63 -17 -18 -10 -39 -14 -54 -10 -26
7 -54 51 -44 68 4 5 49 9 101 9 l94 0 0 33 c-1 111 -103 178 -200 129z m102
-69 c33 -30 23 -43 -37 -43 -46 0 -55 3 -55 18 0 41 57 57 92 25z"/>
<path d="M3793 7025 c-50 -22 -73 -68 -73 -148 0 -110 36 -157 123 -157 62 0
105 23 123 65 20 49 18 55 -19 55 -25 0 -39 -7 -55 -30 -26 -35 -52 -38 -78
-9 -27 30 -26 119 0 148 25 28 67 24 81 -6 8 -18 18 -23 47 -23 44 0 48 14 21
61 -32 53 -105 73 -170 44z"/>
<path d="M4315 7014 c-24 -26 -25 -26 -25 -5 0 17 -6 21 -35 21 l-35 0 0 -155
0 -155 35 0 35 0 0 93 c0 104 11 131 60 142 27 6 30 10 30 46 0 33 -3 39 -20
39 -12 0 -32 -12 -45 -26z"/>
<path d="M4653 7033 c-45 -9 -93 -93 -93 -163 0 -48 21 -99 51 -124 40 -34
123 -37 163 -5 30 24 60 75 51 89 -13 22 -59 10 -85 -22 -21 -25 -31 -30 -51
-25 -57 14 -67 144 -15 179 24 16 56 8 68 -17 9 -21 18 -25 51 -25 38 0 39 1
32 28 -11 46 -54 81 -105 86 -25 2 -55 2 -67 -1z"/>
<path d="M4941 7031 c-26 -7 -55 -42 -66 -78 -6 -21 -3 -23 29 -23 24 0 38 6
45 19 20 36 91 31 91 -8 0 -22 -10 -27 -75 -36 -69 -11 -100 -42 -100 -100 0
-37 5 -51 24 -66 28 -23 99 -25 127 -4 25 19 34 19 34 0 0 -11 11 -15 38 -15
l37 0 -3 122 c-2 67 -8 132 -13 145 -16 42 -99 64 -168 44z m95 -216 c-8 -30
-60 -53 -81 -35 -34 28 -11 67 48 79 35 8 43 -3 33 -44z"/>
<path d="M5963 7033 c-62 -13 -112 -116 -94 -194 19 -83 60 -119 138 -119 99
0 143 42 150 144 5 69 -14 116 -58 149 -27 19 -94 29 -136 20z m97 -83 c31
-31 28 -113 -5 -145 -27 -28 -33 -29 -69 -15 -29 11 -52 73 -42 114 15 61 77
85 116 46z"/>
<path d="M6340 7033 c-8 -3 -23 -12 -32 -21 -16 -14 -18 -13 -18 1 0 13 -9 17
-35 17 l-35 0 0 -145 c0 -80 0 -148 0 -152 0 -5 15 -9 35 -11 l35 -3 0 103 c0
118 12 148 59 148 16 0 33 -6 39 -13 6 -7 13 -62 14 -123 l3 -109 35 0 35 0 3
103 c3 127 -8 177 -48 197 -29 15 -62 18 -90 8z"/>
<path d="M6828 7013 c-27 -27 -28 -27 -28 -5 0 19 -5 22 -35 22 l-35 0 0 -155
0 -155 35 0 35 0 0 88 c0 106 12 134 63 146 36 9 38 12 35 45 -4 47 -32 52
-70 14z"/>
<path d="M7004 7033 c-28 -5 -61 -41 -69 -75 -7 -27 -5 -28 29 -28 25 0 38 6
46 20 13 25 77 28 86 5 10 -25 -13 -42 -66 -49 -71 -10 -105 -41 -105 -99 0
-62 24 -87 84 -87 26 0 56 7 69 16 20 14 23 14 28 0 4 -11 19 -16 46 -16 35 0
39 2 32 18 -4 9 -9 64 -11 122 -2 58 -6 115 -9 128 -8 39 -83 60 -160 45z m96
-192 c0 -47 -55 -86 -85 -61 -12 10 -22 60 -12 60 1 0 20 7 42 15 54 19 55 19
55 -14z"/>
<path d="M7301 7022 c-48 -24 -71 -73 -71 -150 0 -108 37 -152 130 -152 62 0
92 16 115 60 24 47 20 60 -20 60 -29 0 -37 -5 -45 -25 -13 -35 -56 -44 -82
-17 -28 27 -30 123 -3 152 25 28 61 25 81 -5 12 -19 25 -25 50 -25 39 0 43 14
18 61 -28 55 -110 74 -173 41z"/>
<path d="M7815 7033 c-88 -24 -131 -143 -85 -238 26 -54 64 -75 134 -75 47 0
60 4 89 30 75 66 71 212 -7 264 -28 18 -98 28 -131 19z m95 -90 c44 -56 10
-163 -52 -163 -35 0 -68 44 -68 93 0 87 73 129 120 70z"/>
<path d="M8161 7014 c-30 -25 -31 -25 -31 -5 0 17 -6 21 -35 21 l-35 0 0 -156
0 -155 38 3 37 3 3 99 c1 55 8 106 13 113 6 7 26 15 45 19 32 6 34 9 34 45 0
32 -4 39 -19 39 -11 0 -33 -12 -50 -26z"/>
<path d="M4430 6874 l0 -155 38 3 37 3 3 153 3 152 -41 0 -40 0 0 -156z"/>
<path d="M4250 6560 c0 -39 1 -40 35 -40 34 0 35 1 35 40 0 39 -1 40 -35 40
-34 0 -35 -1 -35 -40z"/>
<path d="M5580 6559 l0 -40 38 3 c35 3 37 5 40 41 l3 37 -40 0 -41 0 0 -41z"/>
<path d="M2767 6579 c-97 -23 -533 -220 -738 -334 -266 -147 -421 -257 -560
-395 -94 -93 -112 -116 -153 -200 -106 -218 -96 -349 31 -411 42 -21 61 -24
163 -23 141 0 165 8 590 179 496 200 757 275 819 236 34 -21 -42 -67 -234
-141 -219 -85 -783 -370 -972 -492 -124 -80 -233 -195 -281 -296 -32 -68 -37
-86 -36 -152 0 -90 17 -132 75 -195 100 -109 279 -150 481 -111 74 14 318 95
818 270 578 202 1112 355 1614 462 165 35 187 54 147 120 -25 40 -47 44 -196
34 -396 -28 -1100 -206 -2175 -550 -331 -106 -354 -112 -437 -111 -69 0 -97
11 -113 41 -27 50 66 168 227 287 163 121 293 185 804 398 360 150 468 200
545 252 105 71 184 176 184 243 0 45 -37 108 -81 140 -69 50 -135 65 -284 64
-116 -1 -145 -5 -270 -37 -238 -63 -391 -117 -1012 -356 -187 -72 -277 -70
-258 6 11 47 141 163 295 265 262 173 618 337 998 459 86 28 163 58 170 67 8
11 12 55 12 134 0 105 -2 120 -20 138 -22 22 -83 26 -153 9z"/>
<path d="M3220 6385 l0 -205 40 0 39 0 3 78 3 77 56 3 c72 4 89 -11 89 -78 0
-72 5 -80 56 -80 41 0 44 2 34 19 -5 11 -10 46 -10 79 0 46 -4 63 -20 77 -19
18 -19 18 5 47 27 32 33 89 14 131 -21 46 -56 57 -188 57 l-121 0 0 -205z
m221 125 c24 -13 26 -62 3 -85 -12 -12 -32 -15 -78 -13 l-61 3 -3 39 c-5 60 1
66 63 66 31 0 65 -5 76 -10z"/>
<path d="M6660 6588 c0 -2 -31 -94 -69 -205 l-69 -203 44 0 c42 0 44 1 55 40
l12 41 76 -3 75 -3 9 -37 c9 -37 10 -38 54 -38 32 0 44 4 40 13 -2 6 -33 99
-68 205 l-64 192 -47 0 c-27 0 -48 -1 -48 -2z m74 -174 c22 -84 23 -84 -30
-84 -39 0 -46 3 -41 18 2 9 13 45 23 80 9 34 20 59 24 55 4 -4 14 -35 24 -69z"/>
<path d="M4710 6532 c0 -31 -4 -41 -20 -45 -14 -3 -20 -14 -20 -31 0 -19 5
-26 20 -26 19 0 20 -7 20 -113 0 -75 4 -117 12 -125 7 -7 34 -12 60 -12 47 0
48 1 48 30 0 23 -4 30 -20 30 -18 0 -20 7 -20 85 0 47 0 88 0 93 -1 4 8 8 20
10 15 3 20 11 20 33 0 23 -4 29 -22 29 -20 0 -23 5 -23 37 0 37 -1 38 -37 41
l-38 3 0 -39z"/>
<path d="M5410 6530 c0 -33 -3 -40 -20 -40 -15 0 -20 -7 -20 -29 0 -20 6 -30
20 -34 18 -5 20 -14 20 -114 0 -71 4 -113 12 -121 7 -7 34 -12 60 -12 45 0 48
2 48 25 0 18 -7 28 -25 35 -24 9 -25 13 -25 100 0 90 0 90 26 90 22 0 25 4 22
28 -2 19 -9 28 -25 30 -19 3 -23 10 -23 43 0 38 -1 39 -35 39 -34 0 -35 -1
-35 -40z"/>
<path d="M3646 6469 c-39 -31 -56 -71 -56 -134 0 -114 51 -169 149 -162 47 3
59 9 88 41 19 20 31 41 28 46 -11 17 -65 11 -95 -12 -25 -18 -33 -20 -55 -10
-25 11 -47 49 -38 65 2 4 47 7 99 7 l94 0 0 35 c0 48 -22 97 -55 123 -38 30
-121 31 -159 1z m112 -55 c12 -8 22 -24 22 -35 0 -16 -7 -19 -55 -19 -48 0
-55 3 -55 19 0 20 34 51 55 51 6 0 21 -7 33 -16z"/>
<path d="M3948 6463 c-34 -36 -48 -73 -48 -128 0 -62 26 -123 61 -140 38 -20
98 -19 121 2 19 17 19 16 16 -22 -2 -31 -9 -43 -31 -55 -25 -14 -30 -13 -58 3
-34 19 -99 23 -99 6 0 -61 112 -100 193 -65 69 29 72 38 72 240 l0 181 -32 3
c-25 2 -33 -1 -33 -12 0 -20 -9 -20 -34 -1 -11 8 -38 15 -61 15 -32 0 -47 -6
-67 -27z m138 -68 c18 -28 16 -117 -4 -137 -18 -18 -71 -13 -87 8 -19 25 -19
104 1 132 22 31 69 30 90 -3z"/>
<path d="M4250 6335 l0 -155 35 0 35 0 0 155 0 155 -35 0 -35 0 0 -155z"/>
<path d="M4419 6461 c-22 -23 -29 -39 -29 -70 0 -50 29 -75 106 -92 63 -14 83
-31 64 -54 -18 -21 -66 -19 -90 5 -23 23 -90 28 -90 7 0 -23 32 -59 66 -73 43
-18 96 -18 139 0 39 17 55 42 55 86 0 59 -19 75 -120 101 -50 12 -64 27 -48
46 16 20 66 16 80 -7 9 -13 24 -20 45 -20 28 0 33 4 33 24 0 15 -12 34 -31 50
-25 22 -41 26 -91 26 -53 0 -63 -3 -89 -29z"/>
<path d="M4880 6335 l0 -155 40 0 40 0 0 98 c0 109 11 132 63 132 25 0 27 3
27 40 0 36 -3 40 -25 40 -14 0 -35 -12 -50 -27 l-25 -28 0 28 c0 24 -4 27 -35
27 l-35 0 0 -155z"/>
<path d="M5127 6470 c-14 -11 -30 -33 -35 -50 -11 -30 -11 -30 26 -30 26 0 41
6 50 20 15 24 55 26 77 4 24 -24 3 -41 -65 -54 -73 -14 -103 -43 -103 -101 0
-76 71 -111 146 -73 21 12 32 13 35 5 2 -6 24 -11 50 -11 36 0 43 3 34 12 -8
8 -12 51 -12 126 0 112 0 114 -29 143 -26 26 -37 29 -89 29 -44 0 -66 -5 -85
-20z m125 -177 c-7 -39 -31 -63 -63 -63 -33 0 -43 13 -35 45 4 17 17 28 39 34
56 16 65 14 59 -16z"/>
<path d="M5587 6484 c-4 -4 -7 -74 -7 -156 l0 -148 40 0 41 0 -3 153 -3 152
-30 3 c-17 2 -34 0 -38 -4z"/>
<path d="M5779 6467 c-108 -72 -78 -269 44 -292 122 -23 204 66 182 197 -5 30
-19 54 -45 80 -34 35 -42 38 -92 38 -41 0 -64 -6 -89 -23z m131 -62 c18 -22
24 -91 10 -125 -21 -51 -96 -54 -118 -5 -22 47 -11 116 22 137 19 13 73 9 86
-7z"/>
<path d="M6067 6483 c-4 -3 -7 -73 -7 -155 l0 -148 40 0 40 0 0 103 c0 115 10
137 63 137 38 0 47 -26 47 -139 l0 -101 35 0 35 0 0 130 c0 126 -1 132 -25
155 -31 32 -105 35 -134 6 -19 -19 -19 -19 -24 0 -4 13 -14 19 -34 19 -16 0
-33 -3 -36 -7z"/>
<path d="M6976 6465 c-35 -32 -46 -64 -46 -131 0 -64 19 -115 51 -138 30 -20
98 -21 127 0 21 15 22 14 22 -15 0 -34 -30 -71 -58 -71 -10 0 -27 7 -38 15
-10 8 -38 15 -61 15 -40 0 -42 -1 -34 -22 15 -42 57 -63 126 -63 49 0 70 5 92
21 45 33 54 78 51 253 l-3 156 -33 3 c-22 2 -34 -2 -38 -12 -5 -14 -8 -14 -27
-1 -34 24 -100 19 -131 -10z m133 -71 c35 -45 25 -120 -20 -144 -30 -17 -59
-2 -75 37 -38 90 40 177 95 107z"/>
<path d="M7316 6469 c-40 -32 -56 -71 -56 -141 0 -100 49 -158 135 -158 57 0
125 45 125 82 0 25 -54 24 -87 -2 -33 -26 -49 -25 -78 5 -47 47 -36 55 75 55
l100 0 0 28 c0 50 -20 101 -51 126 -40 34 -123 37 -163 5z m114 -59 c36 -36
26 -50 -34 -50 -30 0 -58 4 -61 10 -8 13 39 60 60 60 8 0 24 -9 35 -20z"/>
<path d="M7580 6335 l0 -155 40 0 40 0 0 101 c0 119 8 139 55 139 47 0 55 -20
55 -139 l0 -101 35 0 35 0 0 129 c0 122 -1 129 -25 155 -31 34 -99 37 -139 5
l-26 -20 0 20 c0 17 -6 21 -35 21 l-35 0 0 -155z"/>
<path d="M7955 6468 c-37 -29 -55 -76 -55 -146 0 -96 50 -152 135 -151 49 0
80 16 106 55 29 45 25 64 -15 64 -25 0 -38 -6 -50 -25 -21 -31 -70 -35 -86 -6
-18 34 -12 126 8 144 26 24 73 22 79 -3 4 -16 14 -20 44 -20 33 0 39 3 39 21
0 12 -15 36 -34 55 -30 30 -40 34 -89 34 -41 0 -61 -5 -82 -22z"/>
<path d="M8190 6477 c0 -7 23 -82 50 -166 54 -161 54 -186 8 -193 -18 -2 -23
-9 -23 -33 0 -29 2 -30 44 -29 30 1 48 7 57 19 7 10 41 102 75 204 34 102 64
192 67 199 3 8 -8 12 -36 12 -46 0 -42 8 -78 -143 -9 -42 -21 -74 -25 -72 -4
3 -16 42 -28 87 -32 124 -35 128 -76 128 -22 0 -35 -5 -35 -13z"/>
<path d="M4561 5855 c-254 -55 -438 -174 -492 -316 -16 -40 -19 -77 -19 -204
0 -95 4 -155 10 -155 31 0 320 21 348 26 28 4 32 9 32 35 0 86 91 239 184 309
60 45 139 82 211 98 122 28 517 51 925 55 l255 2 75 -37 c41 -20 100 -59 132
-87 31 -28 61 -51 67 -51 28 0 7 51 -47 116 -96 114 -191 177 -317 210 -74 20
-1272 18 -1364 -1z"/>
<path d="M5830 5270 l0 -100 370 0 370 0 0 100 0 100 -370 0 -370 0 0 -100z"/>
<path d="M6193 4912 l-363 -2 0 -95 0 -95 370 0 370 0 0 94 c0 52 -3 96 -7 98
-5 2 -171 2 -370 0z"/>
<path d="M4218 4872 l-167 -37 -6 -57 c-10 -87 4 -246 27 -298 37 -88 145
-174 292 -235 169 -70 168 -70 871 -70 622 0 631 0 700 22 39 12 93 36 120 53
58 37 190 163 211 202 14 27 19 68 8 68 -3 0 -31 -22 -61 -49 -30 -27 -89 -67
-131 -88 -72 -36 -80 -38 -188 -42 -131 -4 -656 14 -854 30 -267 21 -368 56
-476 163 -86 87 -144 220 -144 333 0 35 -3 43 -17 42 -10 0 -93 -17 -185 -37z"/>
<path d="M3500 3910 c-12 -12 -20 -33 -20 -54 0 -28 -4 -35 -22 -38 -17 -2
-24 -11 -26 -30 -3 -24 0 -28 22 -28 l26 0 0 -125 0 -125 35 0 34 0 3 122 c3
121 3 122 28 128 18 4 24 12 24 30 1 20 -5 26 -27 28 -34 4 -34 32 1 47 15 7
22 18 22 37 0 26 -3 28 -40 28 -27 0 -47 -7 -60 -20z"/>
<path d="M3987 3924 c-4 -4 -7 -99 -7 -211 l0 -203 40 0 40 0 0 108 c0 93 3
111 18 125 26 23 58 21 76 -5 12 -17 16 -48 16 -125 l0 -103 35 0 35 0 0 126
c0 71 -5 134 -11 146 -24 45 -120 59 -151 21 -11 -14 -14 -6 -18 53 -5 68 -5
69 -35 72 -17 2 -34 0 -38 -4z"/>
<path d="M3810 3860 c0 -33 -3 -40 -20 -40 -16 0 -20 -7 -20 -30 0 -23 4 -30
20 -30 19 0 20 -7 20 -109 0 -128 7 -141 76 -141 42 0 44 1 44 29 0 23 -5 30
-22 33 -22 3 -23 8 -26 96 l-3 92 26 0 c21 0 25 5 25 30 0 25 -4 30 -25 30
-22 0 -25 4 -25 40 0 39 -1 40 -35 40 -34 0 -35 -1 -35 -40z"/>
<path d="M3222 3820 c-72 -17 -106 -74 -100 -171 3 -59 8 -72 33 -99 52 -54
144 -62 201 -17 75 58 71 215 -6 268 -31 21 -85 29 -128 19z m88 -80 c15 -15
20 -33 20 -75 0 -42 -5 -60 -20 -75 -38 -38 -92 -21 -110 35 -30 92 50 175
110 115z"/>
<path d="M4383 3819 c-65 -19 -102 -94 -89 -185 9 -67 30 -99 76 -118 50 -20
69 -20 118 -1 32 13 72 57 72 79 0 13 -78 5 -90 -9 -28 -33 -100 -6 -100 38 0
14 15 17 98 19 l97 3 -3 39 c-5 54 -26 102 -54 119 -31 20 -86 27 -125 16z
m86 -85 c11 -15 18 -30 15 -35 -3 -5 -30 -9 -60 -9 -59 0 -66 9 -38 48 21 30
58 28 83 -4z"/>
<path d="M4920 2515 l0 -195 40 0 40 0 0 195 0 195 -40 0 -40 0 0 -195z"/>
<path d="M6000 2675 c0 -34 1 -35 40 -35 39 0 40 1 40 35 0 34 -1 35 -40 35
-39 0 -40 -1 -40 -35z"/>
<path d="M6650 2515 l0 -195 40 0 40 0 0 195 0 195 -40 0 -40 0 0 -195z"/>
<path d="M4650 2510 l0 -190 125 0 125 0 0 30 0 30 -80 0 -80 0 0 55 0 55 70
0 70 0 0 30 0 30 -70 0 -70 0 0 45 0 45 80 0 80 0 0 30 0 30 -125 0 -125 0 0
-190z"/>
<path d="M5663 2668 c-28 -7 -33 -13 -33 -38 0 -27 -3 -30 -30 -30 -25 0 -30
-4 -30 -24 0 -19 6 -25 28 -28 l27 -3 5 -98 c5 -89 7 -101 29 -118 18 -15 36
-19 70 -17 42 3 46 5 49 31 3 24 0 27 -28 27 -39 0 -52 30 -48 114 l3 61 38 3
c31 3 37 7 37 27 0 20 -6 24 -37 27 -35 3 -38 6 -43 39 -5 35 -6 35 -37 27z"/>
<path d="M5125 2603 c-62 -17 -95 -67 -95 -145 0 -95 55 -148 153 -148 24 0
58 5 76 11 25 9 31 16 31 41 0 25 -3 29 -17 23 -36 -15 -82 -22 -107 -18 -28
6 -69 50 -60 64 3 5 50 9 105 9 99 0 99 0 99 25 0 43 -31 105 -60 120 -32 17
-96 26 -125 18z m89 -69 c33 -32 20 -44 -49 -44 -57 0 -64 2 -58 18 14 41 77
57 107 26z"/>
<path d="M5426 2600 c-84 -26 -122 -136 -75 -220 25 -45 73 -70 134 -70 61 0
75 8 75 40 0 27 -2 28 -34 23 -56 -9 -86 3 -102 43 -30 73 16 141 89 131 35
-5 37 -4 37 23 0 23 -5 29 -31 34 -39 7 -56 7 -93 -4z"/>
<path d="M5934 2600 c-12 -5 -29 -19 -38 -32 l-16 -22 0 27 c0 24 -4 27 -35
27 l-35 0 0 -140 0 -140 40 0 40 0 0 85 c0 78 2 88 25 111 19 19 31 23 50 18
25 -6 26 -5 23 32 -3 41 -17 50 -54 34z"/>
<path d="M6206 2600 c-59 -18 -96 -73 -96 -142 0 -89 61 -148 152 -148 64 0
78 7 78 40 0 27 -2 28 -34 23 -55 -9 -85 4 -103 42 -35 73 20 147 97 131 28
-5 30 -3 30 23 0 24 -5 30 -31 35 -39 7 -56 7 -93 -4z"/>
<path d="M6423 2599 c-39 -9 -43 -13 -43 -41 0 -27 2 -30 23 -23 12 4 41 10
65 12 47 6 72 -8 72 -38 0 -16 -8 -19 -50 -19 -92 0 -140 -34 -140 -98 0 -66
97 -103 165 -64 28 17 35 18 35 7 0 -10 11 -15 35 -15 l35 0 0 95 c0 104 -15
156 -49 174 -30 17 -100 21 -148 10z m117 -172 c0 -40 -38 -64 -91 -59 -19 2
-31 26 -23 46 7 18 48 34 87 35 22 1 27 -3 27 -22z"/>
<path d="M6000 2460 l0 -140 40 0 40 0 0 140 0 140 -40 0 -40 0 0 -140z"/>
<path d="M5310 2197 c-30 -15 -50 -52 -50 -94 0 -30 -3 -33 -30 -33 -25 0 -30
-4 -30 -25 0 -21 5 -25 30 -25 l30 0 0 -115 0 -115 40 0 40 0 0 115 0 115 35
0 c31 0 35 3 35 25 0 22 -4 25 -35 25 -32 0 -35 3 -35 29 0 34 22 55 49 48 15
-4 20 2 23 24 3 18 -1 30 -10 34 -23 9 -66 5 -92 -8z"/>
<path d="M4714 2166 c-71 -31 -95 -110 -51 -162 13 -15 53 -41 88 -58 53 -26
64 -35 64 -56 0 -44 -55 -58 -142 -34 -21 6 -23 3 -23 -29 0 -36 0 -36 54 -42
76 -10 132 2 170 35 26 24 31 36 31 73 0 52 -26 87 -78 108 -83 32 -97 41 -97
65 0 38 40 57 100 49 l50 -7 0 30 c0 25 -5 30 -31 36 -49 10 -101 6 -135 -8z"/>
<path d="M5778 2139 c-18 -7 -28 -19 -30 -37 -2 -21 -9 -28 -30 -30 -22 -3
-28 -9 -28 -27 0 -18 6 -24 28 -27 27 -3 27 -4 30 -83 1 -44 4 -90 7 -102 7
-30 57 -55 103 -51 32 3 37 7 40 31 3 24 0 27 -28 27 -39 0 -52 30 -48 114 3
61 3 61 36 64 26 3 32 8 32 27 0 19 -6 24 -32 27 -30 3 -33 6 -36 41 -3 40 -4
40 -44 26z"/>
<path d="M4987 2068 c-33 -9 -38 -14 -35 -37 2 -20 8 -25 23 -22 76 13 113 12
129 -4 27 -28 13 -40 -55 -46 -70 -6 -103 -19 -119 -49 -28 -53 7 -113 76
-126 30 -5 47 -2 76 14 30 16 38 17 38 6 0 -9 11 -14 35 -14 l35 0 0 110 c0
106 -1 111 -27 140 -24 26 -37 32 -83 35 -30 2 -72 -1 -93 -7z m133 -158 c0
-24 -26 -61 -46 -66 -42 -11 -69 -1 -72 27 -2 18 3 29 20 37 29 13 98 15 98 2z"/>
<path d="M5481 2062 c-45 -24 -71 -74 -71 -136 0 -111 97 -170 223 -135 32 9
37 14 37 41 0 25 -3 29 -17 23 -10 -4 -39 -10 -65 -12 -55 -6 -98 15 -98 47 0
19 7 20 100 20 l100 0 0 33 c0 105 -114 170 -209 119z m116 -54 c6 -7 13 -21
16 -30 6 -16 -1 -18 -64 -18 -69 0 -70 0 -58 23 7 12 17 25 23 29 18 12 73 9
83 -4z"/>
<path d="M5910 2061 c0 -5 25 -72 55 -149 30 -77 55 -145 55 -151 0 -17 -48
-44 -69 -38 -20 5 -31 -10 -31 -39 0 -10 14 -14 53 -14 75 0 92 21 176 228
l70 173 -42 -3 -42 -3 -32 -90 c-17 -49 -33 -94 -35 -99 -2 -5 -20 35 -39 90
l-36 99 -41 3 c-23 2 -42 -1 -42 -7z"/>
<path d="M5550 1465 l0 -205 34 0 33 0 5 90 c6 105 23 140 67 140 44 0 54 -21
59 -130 l5 -100 33 0 34 0 0 116 c0 114 0 116 -29 145 -36 35 -79 38 -134 9
l-37 -20 0 80 0 80 -35 0 -35 0 0 -205z"/>
<path d="M6394 1656 c-3 -8 -4 -25 -2 -38 2 -19 10 -24 41 -26 l37 -3 0 40 c0
40 -1 41 -35 41 -22 0 -38 -6 -41 -14z"/>
<path d="M4754 1603 c-8 -21 -35 -85 -59 -143 -24 -58 -53 -126 -64 -152 l-20
-48 44 0 c42 0 44 1 61 45 l17 46 85 -3 85 -3 16 -42 c15 -42 16 -43 62 -43
l47 0 -81 190 -80 190 -48 0 c-47 0 -49 -2 -65 -37z m94 -116 c12 -33 22 -63
22 -68 0 -5 -25 -9 -56 -9 -41 0 -55 3 -51 13 2 6 15 40 27 75 13 35 26 59 30
55 4 -4 16 -34 28 -66z"/>
<path d="M5410 1611 c-18 -5 -26 -16 -30 -36 -4 -24 -11 -31 -33 -33 -21 -3
-27 -9 -27 -28 0 -20 5 -24 30 -24 l30 0 0 -93 c0 -84 2 -96 23 -115 27 -25
68 -36 102 -28 20 5 25 13 25 37 0 19 -4 28 -11 24 -5 -4 -21 -4 -35 -1 -23 6
-24 10 -24 91 l0 85 35 0 c31 0 35 3 35 25 0 22 -4 25 -35 25 -34 0 -35 1 -35
40 0 42 -4 44 -50 31z"/>
<path d="M6568 1608 c-22 -7 -28 -16 -28 -39 0 -24 -4 -29 -25 -29 -20 0 -25
-5 -25 -25 0 -20 5 -25 25 -25 24 0 25 -2 26 -72 0 -106 15 -140 65 -157 57
-20 94 -9 94 28 0 25 -3 28 -27 23 -40 -7 -53 19 -53 105 l0 73 35 0 c30 0 35
3 35 24 0 21 -6 25 -32 28 -30 3 -33 6 -36 41 -3 39 -9 42 -54 25z"/>
<path d="M5930 1528 c-143 -74 -85 -273 80 -273 94 0 160 60 160 145 0 80 -74
150 -160 150 -20 0 -56 -10 -80 -22z m130 -58 c28 -28 33 -59 18 -105 -15 -46
-51 -65 -95 -49 -54 19 -65 135 -15 164 28 16 71 11 92 -10z"/>
<path d="M6315 1538 c-11 -6 -25 -19 -32 -27 -11 -14 -12 -13 -13 7 0 18 -5
22 -35 22 l-35 0 0 -140 0 -140 40 0 40 0 0 90 c0 102 15 130 70 130 28 0 30
3 30 35 0 30 -3 35 -22 35 -13 0 -32 -6 -43 -12z"/>
<path d="M5030 1429 c0 -61 5 -119 11 -131 25 -46 111 -57 166 -21 21 14 23
14 23 -1 0 -12 10 -16 40 -16 l40 0 0 140 0 140 -40 0 -40 0 -1 -72 c0 -95
-16 -140 -52 -152 -52 -19 -62 -2 -65 118 l-3 106 -39 0 -40 0 0 -111z"/>
<path d="M6390 1400 l0 -140 40 0 40 0 0 140 0 140 -40 0 -40 0 0 -140z"/>
<path d="M6710 1532 c0 -6 25 -74 55 -151 62 -160 62 -178 -3 -183 -32 -3 -37
-7 -40 -30 -3 -27 -2 -28 45 -28 58 0 86 17 112 68 22 44 131 313 131 324 0 4
-17 8 -37 8 l-38 0 -34 -100 c-19 -55 -36 -98 -38 -97 -1 2 -18 46 -37 98
l-34 94 -41 3 c-22 2 -41 -1 -41 -6z"/>
</g>
</svg>
