<svg width="200" viewBox="0 0 80 54" fill="none" xmlns="http://www.w3.org/2000/svg">
<path d="M5.5 13.5H37.5V33V52.5H9C7.067 52.5 5.5 50.933 5.5 49V13.5Z" fill="white" stroke="#4C0709" stroke-width="3"/>
<g clip-path="url(#clip0_10_11)">
<path d="M20.6667 36.6667H14L23.3333 18V28.6667H30L20.6667 47.3333V36.6667Z" fill="black"/>
</g>
<path d="M4.88068 10V2.72727H7.4233C7.92992 2.72727 8.34777 2.81487 8.67685 2.99006C9.00592 3.16288 9.25095 3.39607 9.41193 3.68963C9.57292 3.98082 9.65341 4.30398 9.65341 4.65909C9.65341 4.97159 9.59777 5.22964 9.48651 5.43324C9.3776 5.63684 9.23319 5.79782 9.05327 5.91619C8.87571 6.03456 8.68277 6.12216 8.47443 6.17898V6.25C8.69697 6.2642 8.92069 6.34233 9.1456 6.48438C9.3705 6.62642 9.55871 6.83002 9.71023 7.09517C9.86174 7.36032 9.9375 7.68466 9.9375 8.06818C9.9375 8.43277 9.85464 8.76065 9.68892 9.05185C9.5232 9.34304 9.2616 9.57386 8.90412 9.74432C8.54664 9.91477 8.08144 10 7.50852 10H4.88068ZM5.76136 9.21875H7.50852C8.08381 9.21875 8.49219 9.10748 8.73366 8.88494C8.97751 8.66004 9.09943 8.38778 9.09943 8.06818C9.09943 7.82197 9.0367 7.5947 8.91122 7.38636C8.78575 7.17566 8.60701 7.00758 8.375 6.8821C8.14299 6.75426 7.86837 6.69034 7.55114 6.69034H5.76136V9.21875ZM5.76136 5.9233H7.39489C7.66004 5.9233 7.89915 5.87121 8.11222 5.76705C8.32765 5.66288 8.49811 5.5161 8.62358 5.3267C8.75142 5.13731 8.81534 4.91477 8.81534 4.65909C8.81534 4.33949 8.70407 4.06842 8.48153 3.84588C8.259 3.62098 7.90625 3.50852 7.4233 3.50852H5.76136V5.9233ZM11.3846 10V2.72727H12.2653V9.21875H15.646V10H11.3846ZM17.7669 10H16.8436L19.514 2.72727H20.4231L23.0936 10H22.1703L19.997 3.87784H19.9402L17.7669 10ZM18.1078 7.15909H21.8294V7.94034H18.1078V7.15909ZM29.7369 5H28.8562C28.8041 4.74669 28.713 4.52415 28.5827 4.33239C28.4549 4.14062 28.2987 3.97964 28.114 3.84943C27.9317 3.71686 27.7293 3.61742 27.5067 3.55114C27.2842 3.48485 27.0522 3.4517 26.8107 3.4517C26.3704 3.4517 25.9715 3.56297 25.614 3.78551C25.2589 4.00805 24.976 4.33594 24.7653 4.76918C24.5569 5.20241 24.4528 5.7339 24.4528 6.36364C24.4528 6.99337 24.5569 7.52486 24.7653 7.9581C24.976 8.39134 25.2589 8.71922 25.614 8.94176C25.9715 9.1643 26.3704 9.27557 26.8107 9.27557C27.0522 9.27557 27.2842 9.24242 27.5067 9.17614C27.7293 9.10985 27.9317 9.0116 28.114 8.88139C28.2987 8.74882 28.4549 8.58665 28.5827 8.39489C28.713 8.20076 28.8041 7.97822 28.8562 7.72727H29.7369C29.6706 8.09896 29.5498 8.43158 29.3746 8.72514C29.1995 9.0187 28.9817 9.26847 28.7212 9.47443C28.4608 9.67803 28.1684 9.8331 27.8441 9.93963C27.5221 10.0462 27.1777 10.0994 26.8107 10.0994C26.1905 10.0994 25.6388 9.94792 25.1559 9.64489C24.6729 9.34186 24.293 8.91098 24.016 8.35227C23.739 7.79356 23.6005 7.13068 23.6005 6.36364C23.6005 5.59659 23.739 4.93371 24.016 4.375C24.293 3.81629 24.6729 3.38542 25.1559 3.08239C25.6388 2.77936 26.1905 2.62784 26.8107 2.62784C27.1777 2.62784 27.5221 2.68111 27.8441 2.78764C28.1684 2.89418 28.4608 3.05043 28.7212 3.25639C28.9817 3.45999 29.1995 3.70857 29.3746 4.00213C29.5498 4.29332 29.6706 4.62595 29.7369 5ZM31.16 10V2.72727H32.0407V6.33523H32.1259L35.3929 2.72727H36.5435L33.4895 6.00852L36.5435 10H35.4782L32.9498 6.61932L32.0407 7.64205V10H31.16ZM44.4732 4.54545C44.4306 4.18561 44.2578 3.90625 43.9547 3.70739C43.6517 3.50852 43.28 3.40909 42.8397 3.40909C42.5177 3.40909 42.236 3.46117 41.9945 3.56534C41.7554 3.66951 41.5684 3.81274 41.4334 3.99503C41.3008 4.17732 41.2346 4.38447 41.2346 4.61648C41.2346 4.81061 41.2807 4.97751 41.373 5.11719C41.4677 5.2545 41.5885 5.36932 41.7353 5.46165C41.882 5.55161 42.0359 5.62618 42.1969 5.68537C42.3579 5.74219 42.5059 5.78835 42.6408 5.82386L43.3794 6.02273C43.5688 6.07244 43.7795 6.1411 44.0115 6.22869C44.2459 6.31629 44.4696 6.43584 44.6827 6.58736C44.8981 6.73651 45.0757 6.92827 45.2154 7.16264C45.3551 7.39702 45.4249 7.68466 45.4249 8.02557C45.4249 8.41856 45.3219 8.77367 45.1159 9.09091C44.9123 9.40814 44.6141 9.66027 44.2211 9.8473C43.8304 10.0343 43.3558 10.1278 42.7971 10.1278C42.2762 10.1278 41.8252 10.0438 41.4441 9.87571C41.0653 9.70762 40.767 9.47325 40.5492 9.17259C40.3337 8.87192 40.2118 8.52273 40.1834 8.125H41.0925C41.1162 8.39962 41.2085 8.62689 41.3695 8.80682C41.5328 8.98437 41.7388 9.11695 41.9874 9.20455C42.2383 9.28977 42.5082 9.33239 42.7971 9.33239C43.1332 9.33239 43.4351 9.27794 43.7026 9.16903C43.9701 9.05777 44.182 8.90388 44.3382 8.70739C44.4945 8.50852 44.5726 8.27652 44.5726 8.01136C44.5726 7.76989 44.5051 7.57339 44.3702 7.42188C44.2353 7.27036 44.0577 7.14725 43.8375 7.05256C43.6174 6.95786 43.3794 6.875 43.1238 6.80398L42.2289 6.5483C41.6607 6.38494 41.2109 6.15175 40.8794 5.84872C40.548 5.54569 40.3823 5.14915 40.3823 4.65909C40.3823 4.25189 40.4924 3.89678 40.7125 3.59375C40.9351 3.28835 41.2334 3.05161 41.6074 2.88352C41.9838 2.71307 42.4041 2.62784 42.8681 2.62784C43.3368 2.62784 43.7535 2.71188 44.1181 2.87997C44.4827 3.04569 44.7715 3.27296 44.9846 3.56179C45.2 3.85062 45.3136 4.1785 45.3255 4.54545H44.4732ZM46.4751 3.50852V2.72727H51.9297V3.50852H49.6428V10H48.7621V3.50852H46.4751ZM59.1225 6.36364C59.1225 7.13068 58.984 7.79356 58.707 8.35227C58.43 8.91098 58.0501 9.34186 57.5671 9.64489C57.0842 9.94792 56.5326 10.0994 55.9123 10.0994C55.292 10.0994 54.7404 9.94792 54.2575 9.64489C53.7745 9.34186 53.3945 8.91098 53.1175 8.35227C52.8406 7.79356 52.7021 7.13068 52.7021 6.36364C52.7021 5.59659 52.8406 4.93371 53.1175 4.375C53.3945 3.81629 53.7745 3.38542 54.2575 3.08239C54.7404 2.77936 55.292 2.62784 55.9123 2.62784C56.5326 2.62784 57.0842 2.77936 57.5671 3.08239C58.0501 3.38542 58.43 3.81629 58.707 4.375C58.984 4.93371 59.1225 5.59659 59.1225 6.36364ZM58.2702 6.36364C58.2702 5.7339 58.1649 5.20241 57.9542 4.76918C57.7459 4.33594 57.4629 4.00805 57.1055 3.78551C56.7504 3.56297 56.3526 3.4517 55.9123 3.4517C55.4719 3.4517 55.073 3.56297 54.7156 3.78551C54.3604 4.00805 54.0775 4.33594 53.8668 4.76918C53.6585 5.20241 53.5543 5.7339 53.5543 6.36364C53.5543 6.99337 53.6585 7.52486 53.8668 7.9581C54.0775 8.39134 54.3604 8.71922 54.7156 8.94176C55.073 9.1643 55.4719 9.27557 55.9123 9.27557C56.3526 9.27557 56.7504 9.1643 57.1055 8.94176C57.4629 8.71922 57.7459 8.39134 57.9542 7.9581C58.1649 7.52486 58.2702 6.99337 58.2702 6.36364ZM66.3704 2.72727V10H65.5181L61.555 4.28977H61.484V10H60.6033V2.72727H61.4556L65.4329 8.4517H65.5039V2.72727H66.3704ZM68.1326 10V2.72727H72.5218V3.50852H69.0133V5.96591H72.2946V6.74716H69.0133V9.21875H72.5787V10H68.1326Z" fill="#48A3D7"/>
<rect x="30" y="11" width="38" height="17" fill="white"/>
<path d="M30.5372 19V14.6364H33.1707V15.1051H31.0656V16.5795H33.0344V17.0483H31.0656V18.5312H33.2048V19H30.5372ZM34.1231 19V14.6364H34.6515V18.5312H36.68V19H34.1231ZM37.4981 19V14.6364H40.1317V15.1051H38.0265V16.5795H39.9953V17.0483H38.0265V18.5312H40.1657V19H37.4981ZM44.5954 16H44.067C44.0358 15.848 43.9811 15.7145 43.903 15.5994C43.8263 15.4844 43.7325 15.3878 43.6217 15.3097C43.5123 15.2301 43.3909 15.1705 43.2574 15.1307C43.1238 15.0909 42.9846 15.071 42.8398 15.071C42.5756 15.071 42.3362 15.1378 42.1217 15.2713C41.9086 15.4048 41.7389 15.6016 41.6125 15.8615C41.4875 16.1214 41.425 16.4403 41.425 16.8182C41.425 17.196 41.4875 17.5149 41.6125 17.7749C41.7389 18.0348 41.9086 18.2315 42.1217 18.3651C42.3362 18.4986 42.5756 18.5653 42.8398 18.5653C42.9846 18.5653 43.1238 18.5455 43.2574 18.5057C43.3909 18.4659 43.5123 18.407 43.6217 18.3288C43.7325 18.2493 43.8263 18.152 43.903 18.0369C43.9811 17.9205 44.0358 17.7869 44.067 17.6364H44.5954C44.5557 17.8594 44.4832 18.0589 44.3781 18.2351C44.273 18.4112 44.1423 18.5611 43.9861 18.6847C43.8298 18.8068 43.6544 18.8999 43.4598 18.9638C43.2666 19.0277 43.0599 19.0597 42.8398 19.0597C42.4676 19.0597 42.1366 18.9688 41.8469 18.7869C41.5571 18.6051 41.3291 18.3466 41.1629 18.0114C40.9967 17.6761 40.9136 17.2784 40.9136 16.8182C40.9136 16.358 40.9967 15.9602 41.1629 15.625C41.3291 15.2898 41.5571 15.0312 41.8469 14.8494C42.1366 14.6676 42.4676 14.5767 42.8398 14.5767C43.0599 14.5767 43.2666 14.6087 43.4598 14.6726C43.6544 14.7365 43.8298 14.8303 43.9861 14.9538C44.1423 15.076 44.273 15.2251 44.3781 15.4013C44.4832 15.576 44.5557 15.7756 44.5954 16ZM45.2107 15.1051V14.6364H48.4834V15.1051H47.1112V19H46.5828V15.1051H45.2107ZM49.2989 19V14.6364H50.7733C51.1143 14.6364 51.3941 14.6946 51.6128 14.8111C51.8316 14.9261 51.9935 15.0845 52.0986 15.2862C52.2037 15.4879 52.2563 15.7173 52.2563 15.9744C52.2563 16.2315 52.2037 16.4595 52.0986 16.6584C51.9935 16.8572 51.8323 17.0135 51.615 17.1271C51.3976 17.2393 51.1199 17.2955 50.7819 17.2955H49.5887V16.8182H50.7648C50.9978 16.8182 51.1853 16.7841 51.3273 16.7159C51.4708 16.6477 51.5745 16.5511 51.6384 16.4261C51.7037 16.2997 51.7364 16.1491 51.7364 15.9744C51.7364 15.7997 51.7037 15.647 51.6384 15.5163C51.5731 15.3857 51.4687 15.2848 51.3252 15.2138C51.1817 15.1413 50.9921 15.1051 50.7563 15.1051H49.8273V19H49.2989ZM51.3529 17.0398L52.4268 19H51.8131L50.7563 17.0398H51.3529ZM53.6652 14.6364V19H53.1368V14.6364H53.6652ZM58.2361 16H57.7077C57.6764 15.848 57.6217 15.7145 57.5436 15.5994C57.4669 15.4844 57.3731 15.3878 57.2623 15.3097C57.153 15.2301 57.0315 15.1705 56.898 15.1307C56.7645 15.0909 56.6253 15.071 56.4804 15.071C56.2162 15.071 55.9768 15.1378 55.7623 15.2713C55.5493 15.4048 55.3795 15.6016 55.2531 15.8615C55.1281 16.1214 55.0656 16.4403 55.0656 16.8182C55.0656 17.196 55.1281 17.5149 55.2531 17.7749C55.3795 18.0348 55.5493 18.2315 55.7623 18.3651C55.9768 18.4986 56.2162 18.5653 56.4804 18.5653C56.6253 18.5653 56.7645 18.5455 56.898 18.5057C57.0315 18.4659 57.153 18.407 57.2623 18.3288C57.3731 18.2493 57.4669 18.152 57.5436 18.0369C57.6217 17.9205 57.6764 17.7869 57.7077 17.6364H58.2361C58.1963 17.8594 58.1238 18.0589 58.0187 18.2351C57.9136 18.4112 57.7829 18.5611 57.6267 18.6847C57.4704 18.8068 57.295 18.8999 57.1004 18.9638C56.9072 19.0277 56.7006 19.0597 56.4804 19.0597C56.1082 19.0597 55.7773 18.9688 55.4875 18.7869C55.1977 18.6051 54.9697 18.3466 54.8035 18.0114C54.6373 17.6761 54.5542 17.2784 54.5542 16.8182C54.5542 16.358 54.6373 15.9602 54.8035 15.625C54.9697 15.2898 55.1977 15.0312 55.4875 14.8494C55.7773 14.6676 56.1082 14.5767 56.4804 14.5767C56.7006 14.5767 56.9072 14.6087 57.1004 14.6726C57.295 14.7365 57.4704 14.8303 57.6267 14.9538C57.7829 15.076 57.9136 15.2251 58.0187 15.4013C58.1238 15.576 58.1963 15.7756 58.2361 16ZM59.2689 19H58.7149L60.3172 14.6364H60.8627L62.4649 19H61.911L60.607 15.3267H60.5729L59.2689 19ZM59.4735 17.2955H61.7064V17.7642H59.4735V17.2955ZM63.1446 19V14.6364H63.673V18.5312H65.7014V19H63.1446ZM33.6296 22.7273C33.604 22.5114 33.5004 22.3438 33.3185 22.2244C33.1367 22.1051 32.9137 22.0455 32.6495 22.0455C32.4563 22.0455 32.2873 22.0767 32.1424 22.1392C31.9989 22.2017 31.8867 22.2876 31.8058 22.397C31.7262 22.5064 31.6864 22.6307 31.6864 22.7699C31.6864 22.8864 31.7141 22.9865 31.7695 23.0703C31.8263 23.1527 31.8988 23.2216 31.9869 23.277C32.0749 23.331 32.1673 23.3757 32.2638 23.4112C32.3604 23.4453 32.4492 23.473 32.5302 23.4943L32.9734 23.6136C33.087 23.6435 33.2134 23.6847 33.3526 23.7372C33.4933 23.7898 33.6275 23.8615 33.7553 23.9524C33.8846 24.0419 33.9911 24.157 34.0749 24.2976C34.1587 24.4382 34.2006 24.6108 34.2006 24.8153C34.2006 25.0511 34.1388 25.2642 34.0153 25.4545C33.8931 25.6449 33.7141 25.7962 33.4783 25.9084C33.244 26.0206 32.9592 26.0767 32.6239 26.0767C32.3114 26.0767 32.0408 26.0263 31.8121 25.9254C31.5849 25.8246 31.4059 25.6839 31.2752 25.5036C31.146 25.3232 31.0728 25.1136 31.0558 24.875H31.6012C31.6154 25.0398 31.6708 25.1761 31.7674 25.2841C31.8654 25.3906 31.989 25.4702 32.1381 25.5227C32.2887 25.5739 32.4506 25.5994 32.6239 25.5994C32.8256 25.5994 33.0067 25.5668 33.1673 25.5014C33.3278 25.4347 33.4549 25.3423 33.5487 25.2244C33.6424 25.1051 33.6893 24.9659 33.6893 24.8068C33.6893 24.6619 33.6488 24.544 33.5678 24.4531C33.4869 24.3622 33.3803 24.2884 33.2482 24.2315C33.1161 24.1747 32.9734 24.125 32.82 24.0824L32.283 23.929C31.9421 23.831 31.6722 23.6911 31.4734 23.5092C31.2745 23.3274 31.1751 23.0895 31.1751 22.7955C31.1751 22.5511 31.2411 22.3381 31.3732 22.1562C31.5067 21.973 31.6857 21.831 31.9102 21.7301C32.136 21.6278 32.3881 21.5767 32.6665 21.5767C32.9478 21.5767 33.1978 21.6271 33.4165 21.728C33.6353 21.8274 33.8086 21.9638 33.9364 22.1371C34.0657 22.3104 34.1339 22.5071 34.141 22.7273H33.6296ZM38.7512 23.8182C38.7512 24.2784 38.6681 24.6761 38.502 25.0114C38.3358 25.3466 38.1078 25.6051 37.818 25.7869C37.5282 25.9688 37.1973 26.0597 36.8251 26.0597C36.4529 26.0597 36.122 25.9688 35.8322 25.7869C35.5424 25.6051 35.3145 25.3466 35.1483 25.0114C34.9821 24.6761 34.899 24.2784 34.899 23.8182C34.899 23.358 34.9821 22.9602 35.1483 22.625C35.3145 22.2898 35.5424 22.0312 35.8322 21.8494C36.122 21.6676 36.4529 21.5767 36.8251 21.5767C37.1973 21.5767 37.5282 21.6676 37.818 21.8494C38.1078 22.0312 38.3358 22.2898 38.502 22.625C38.6681 22.9602 38.7512 23.358 38.7512 23.8182ZM38.2399 23.8182C38.2399 23.4403 38.1767 23.1214 38.0502 22.8615C37.9252 22.6016 37.7555 22.4048 37.541 22.2713C37.3279 22.1378 37.0893 22.071 36.8251 22.071C36.5609 22.071 36.3216 22.1378 36.1071 22.2713C35.894 22.4048 35.7243 22.6016 35.5978 22.8615C35.4728 23.1214 35.4103 23.4403 35.4103 23.8182C35.4103 24.196 35.4728 24.5149 35.5978 24.7749C35.7243 25.0348 35.894 25.2315 36.1071 25.3651C36.3216 25.4986 36.5609 25.5653 36.8251 25.5653C37.0893 25.5653 37.3279 25.4986 37.541 25.3651C37.7555 25.2315 37.9252 25.0348 38.0502 24.7749C38.1767 24.5149 38.2399 24.196 38.2399 23.8182ZM39.6397 26V21.6364H40.1681V25.5312H42.1966V26H39.6397ZM45.8784 21.6364H46.4068V24.5256C46.4068 24.8239 46.3365 25.0902 46.1958 25.3246C46.0566 25.5575 45.8599 25.7415 45.6056 25.8764C45.3514 26.0099 45.0531 26.0767 44.7108 26.0767C44.3684 26.0767 44.0701 26.0099 43.8159 25.8764C43.5616 25.7415 43.3642 25.5575 43.2235 25.3246C43.0843 25.0902 43.0147 24.8239 43.0147 24.5256V21.6364H43.5431V24.483C43.5431 24.696 43.59 24.8857 43.6838 25.0518C43.7775 25.2166 43.911 25.3466 44.0843 25.4418C44.2591 25.5355 44.4679 25.5824 44.7108 25.5824C44.9537 25.5824 45.1625 25.5355 45.3372 25.4418C45.5119 25.3466 45.6454 25.2166 45.7377 25.0518C45.8315 24.8857 45.8784 24.696 45.8784 24.483V21.6364ZM47.2234 22.1051V21.6364H50.4961V22.1051H49.1239V26H48.5955V22.1051H47.2234ZM51.84 21.6364V26H51.3116V21.6364H51.84ZM56.5813 23.8182C56.5813 24.2784 56.4982 24.6761 56.332 25.0114C56.1658 25.3466 55.9379 25.6051 55.6481 25.7869C55.3583 25.9688 55.0273 26.0597 54.6552 26.0597C54.283 26.0597 53.9521 25.9688 53.6623 25.7869C53.3725 25.6051 53.1445 25.3466 52.9783 25.0114C52.8121 24.6761 52.729 24.2784 52.729 23.8182C52.729 23.358 52.8121 22.9602 52.9783 22.625C53.1445 22.2898 53.3725 22.0312 53.6623 21.8494C53.9521 21.6676 54.283 21.5767 54.6552 21.5767C55.0273 21.5767 55.3583 21.6676 55.6481 21.8494C55.9379 22.0312 56.1658 22.2898 56.332 22.625C56.4982 22.9602 56.5813 23.358 56.5813 23.8182ZM56.07 23.8182C56.07 23.4403 56.0067 23.1214 55.8803 22.8615C55.7553 22.6016 55.5856 22.4048 55.3711 22.2713C55.158 22.1378 54.9194 22.071 54.6552 22.071C54.391 22.071 54.1516 22.1378 53.9371 22.2713C53.7241 22.4048 53.5543 22.6016 53.4279 22.8615C53.3029 23.1214 53.2404 23.4403 53.2404 23.8182C53.2404 24.196 53.3029 24.5149 53.4279 24.7749C53.5543 25.0348 53.7241 25.2315 53.9371 25.3651C54.1516 25.4986 54.391 25.5653 54.6552 25.5653C54.9194 25.5653 55.158 25.4986 55.3711 25.3651C55.5856 25.2315 55.7553 25.0348 55.8803 24.7749C56.0067 24.5149 56.07 24.196 56.07 23.8182ZM60.93 21.6364V26H60.4187L58.0408 22.5739H57.9982V26H57.4698V21.6364H57.9812L60.3675 25.071H60.4102V21.6364H60.93ZM64.3738 22.7273C64.3482 22.5114 64.2445 22.3438 64.0627 22.2244C63.8809 22.1051 63.6578 22.0455 63.3936 22.0455C63.2005 22.0455 63.0314 22.0767 62.8865 22.1392C62.7431 22.2017 62.6309 22.2876 62.5499 22.397C62.4703 22.5064 62.4306 22.6307 62.4306 22.7699C62.4306 22.8864 62.4583 22.9865 62.5137 23.0703C62.5705 23.1527 62.6429 23.2216 62.731 23.277C62.8191 23.331 62.9114 23.3757 63.008 23.4112C63.1046 23.4453 63.1934 23.473 63.2743 23.4943L63.7175 23.6136C63.8311 23.6435 63.9576 23.6847 64.0968 23.7372C64.2374 23.7898 64.3716 23.8615 64.4995 23.9524C64.6287 24.0419 64.7353 24.157 64.8191 24.2976C64.9029 24.4382 64.9448 24.6108 64.9448 24.8153C64.9448 25.0511 64.883 25.2642 64.7594 25.4545C64.6373 25.6449 64.4583 25.7962 64.2225 25.9084C63.9881 26.0206 63.7033 26.0767 63.3681 26.0767C63.0556 26.0767 62.785 26.0263 62.5563 25.9254C62.329 25.8246 62.15 25.6839 62.0194 25.5036C61.8901 25.3232 61.8169 25.1136 61.7999 24.875H62.3453C62.3596 25.0398 62.415 25.1761 62.5115 25.2841C62.6096 25.3906 62.7331 25.4702 62.8823 25.5227C63.0328 25.5739 63.1948 25.5994 63.3681 25.5994C63.5698 25.5994 63.7509 25.5668 63.9114 25.5014C64.0719 25.4347 64.199 25.3423 64.2928 25.2244C64.3865 25.1051 64.4334 24.9659 64.4334 24.8068C64.4334 24.6619 64.3929 24.544 64.312 24.4531C64.231 24.3622 64.1245 24.2884 63.9924 24.2315C63.8603 24.1747 63.7175 24.125 63.5641 24.0824L63.0272 23.929C62.6863 23.831 62.4164 23.6911 62.2175 23.5092C62.0186 23.3274 61.9192 23.0895 61.9192 22.7955C61.9192 22.5511 61.9853 22.3381 62.1174 22.1562C62.2509 21.973 62.4299 21.831 62.6543 21.7301C62.8801 21.6278 63.1323 21.5767 63.4107 21.5767C63.6919 21.5767 63.9419 21.6271 64.1607 21.728C64.3794 21.8274 64.5527 21.9638 64.6806 22.1371C64.8098 22.3104 64.878 22.5071 64.8851 22.7273H64.3738Z" fill="black"/>
<defs>
<clipPath id="clip0_10_11">
<rect width="32" height="32" fill="white" transform="translate(0 15)"/>
</clipPath>
</defs>
</svg>
