<svg width="200" viewBox="0 0 80 57" fill="none" xmlns="http://www.w3.org/2000/svg">
<path d="M39 28.5V55H9C6.23858 55 4 52.7614 4 50V13C4 13 18.9322 13 28.5 13" stroke="#4C0709" stroke-width="3"/>
<g clip-path="url(#clip0_10_11)">
<path d="M20.6667 37.6667H14L23.3333 19V29.6667H30L20.6667 48.3333V37.6667Z" fill="black"/>
</g>
<path d="M2.88068 10V2.72727H5.4233C5.92992 2.72727 6.34777 2.81487 6.67685 2.99006C7.00592 3.16288 7.25095 3.39607 7.41193 3.68963C7.57292 3.98082 7.65341 4.30398 7.65341 4.65909C7.65341 4.97159 7.59777 5.22964 7.48651 5.43324C7.3776 5.63684 7.23319 5.79782 7.05327 5.91619C6.87571 6.03456 6.68277 6.12216 6.47443 6.17898V6.25C6.69697 6.2642 6.92069 6.34233 7.1456 6.48438C7.3705 6.62642 7.55871 6.83002 7.71023 7.09517C7.86174 7.36032 7.9375 7.68466 7.9375 8.06818C7.9375 8.43277 7.85464 8.76065 7.68892 9.05185C7.5232 9.34304 7.2616 9.57386 6.90412 9.74432C6.54664 9.91477 6.08144 10 5.50852 10H2.88068ZM3.76136 9.21875H5.50852C6.08381 9.21875 6.49219 9.10748 6.73366 8.88494C6.97751 8.66004 7.09943 8.38778 7.09943 8.06818C7.09943 7.82197 7.0367 7.5947 6.91122 7.38636C6.78575 7.17566 6.60701 7.00758 6.375 6.8821C6.14299 6.75426 5.86837 6.69034 5.55114 6.69034H3.76136V9.21875ZM3.76136 5.9233H5.39489C5.66004 5.9233 5.89915 5.87121 6.11222 5.76705C6.32765 5.66288 6.49811 5.5161 6.62358 5.3267C6.75142 5.13731 6.81534 4.91477 6.81534 4.65909C6.81534 4.33949 6.70407 4.06842 6.48153 3.84588C6.259 3.62098 5.90625 3.50852 5.4233 3.50852H3.76136V5.9233ZM9.38459 10V2.72727H10.2653V9.21875H13.646V10H9.38459ZM15.7669 10H14.8436L17.514 2.72727H18.4231L21.0936 10H20.1703L17.997 3.87784H17.9402L15.7669 10ZM16.1078 7.15909H19.8294V7.94034H16.1078V7.15909ZM27.7369 5H26.8562C26.8041 4.74669 26.713 4.52415 26.5827 4.33239C26.4549 4.14062 26.2987 3.97964 26.114 3.84943C25.9317 3.71686 25.7293 3.61742 25.5067 3.55114C25.2842 3.48485 25.0522 3.4517 24.8107 3.4517C24.3704 3.4517 23.9715 3.56297 23.614 3.78551C23.2589 4.00805 22.976 4.33594 22.7653 4.76918C22.5569 5.20241 22.4528 5.7339 22.4528 6.36364C22.4528 6.99337 22.5569 7.52486 22.7653 7.9581C22.976 8.39134 23.2589 8.71922 23.614 8.94176C23.9715 9.1643 24.3704 9.27557 24.8107 9.27557C25.0522 9.27557 25.2842 9.24242 25.5067 9.17614C25.7293 9.10985 25.9317 9.0116 26.114 8.88139C26.2987 8.74882 26.4549 8.58665 26.5827 8.39489C26.713 8.20076 26.8041 7.97822 26.8562 7.72727H27.7369C27.6706 8.09896 27.5498 8.43158 27.3746 8.72514C27.1995 9.0187 26.9817 9.26847 26.7212 9.47443C26.4608 9.67803 26.1684 9.8331 25.8441 9.93963C25.5221 10.0462 25.1777 10.0994 24.8107 10.0994C24.1905 10.0994 23.6388 9.94792 23.1559 9.64489C22.6729 9.34186 22.293 8.91098 22.016 8.35227C21.739 7.79356 21.6005 7.13068 21.6005 6.36364C21.6005 5.59659 21.739 4.93371 22.016 4.375C22.293 3.81629 22.6729 3.38542 23.1559 3.08239C23.6388 2.77936 24.1905 2.62784 24.8107 2.62784C25.1777 2.62784 25.5221 2.68111 25.8441 2.78764C26.1684 2.89418 26.4608 3.05043 26.7212 3.25639C26.9817 3.45999 27.1995 3.70857 27.3746 4.00213C27.5498 4.29332 27.6706 4.62595 27.7369 5ZM29.16 10V2.72727H30.0407V6.33523H30.1259L33.3929 2.72727H34.5435L31.4895 6.00852L34.5435 10H33.4782L30.9498 6.61932L30.0407 7.64205V10H29.16ZM42.4732 4.54545C42.4306 4.18561 42.2578 3.90625 41.9547 3.70739C41.6517 3.50852 41.28 3.40909 40.8397 3.40909C40.5177 3.40909 40.236 3.46117 39.9945 3.56534C39.7554 3.66951 39.5684 3.81274 39.4334 3.99503C39.3008 4.17732 39.2346 4.38447 39.2346 4.61648C39.2346 4.81061 39.2807 4.97751 39.373 5.11719C39.4677 5.2545 39.5885 5.36932 39.7353 5.46165C39.882 5.55161 40.0359 5.62618 40.1969 5.68537C40.3579 5.74219 40.5059 5.78835 40.6408 5.82386L41.3794 6.02273C41.5688 6.07244 41.7795 6.1411 42.0115 6.22869C42.2459 6.31629 42.4696 6.43584 42.6827 6.58736C42.8981 6.73651 43.0757 6.92827 43.2154 7.16264C43.3551 7.39702 43.4249 7.68466 43.4249 8.02557C43.4249 8.41856 43.3219 8.77367 43.1159 9.09091C42.9123 9.40814 42.6141 9.66027 42.2211 9.8473C41.8304 10.0343 41.3558 10.1278 40.7971 10.1278C40.2762 10.1278 39.8252 10.0438 39.4441 9.87571C39.0653 9.70762 38.767 9.47325 38.5492 9.17259C38.3337 8.87192 38.2118 8.52273 38.1834 8.125H39.0925C39.1162 8.39962 39.2085 8.62689 39.3695 8.80682C39.5328 8.98437 39.7388 9.11695 39.9874 9.20455C40.2383 9.28977 40.5082 9.33239 40.7971 9.33239C41.1332 9.33239 41.4351 9.27794 41.7026 9.16903C41.9701 9.05777 42.182 8.90388 42.3382 8.70739C42.4945 8.50852 42.5726 8.27652 42.5726 8.01136C42.5726 7.76989 42.5051 7.57339 42.3702 7.42188C42.2353 7.27036 42.0577 7.14725 41.8375 7.05256C41.6174 6.95786 41.3794 6.875 41.1238 6.80398L40.2289 6.5483C39.6607 6.38494 39.2109 6.15175 38.8794 5.84872C38.548 5.54569 38.3823 5.14915 38.3823 4.65909C38.3823 4.25189 38.4924 3.89678 38.7125 3.59375C38.9351 3.28835 39.2334 3.05161 39.6074 2.88352C39.9838 2.71307 40.4041 2.62784 40.8681 2.62784C41.3368 2.62784 41.7535 2.71188 42.1181 2.87997C42.4827 3.04569 42.7715 3.27296 42.9846 3.56179C43.2 3.85062 43.3136 4.1785 43.3255 4.54545H42.4732ZM44.4751 3.50852V2.72727H49.9297V3.50852H47.6428V10H46.7621V3.50852H44.4751ZM57.1225 6.36364C57.1225 7.13068 56.984 7.79356 56.707 8.35227C56.43 8.91098 56.0501 9.34186 55.5671 9.64489C55.0842 9.94792 54.5326 10.0994 53.9123 10.0994C53.292 10.0994 52.7404 9.94792 52.2575 9.64489C51.7745 9.34186 51.3945 8.91098 51.1175 8.35227C50.8406 7.79356 50.7021 7.13068 50.7021 6.36364C50.7021 5.59659 50.8406 4.93371 51.1175 4.375C51.3945 3.81629 51.7745 3.38542 52.2575 3.08239C52.7404 2.77936 53.292 2.62784 53.9123 2.62784C54.5326 2.62784 55.0842 2.77936 55.5671 3.08239C56.0501 3.38542 56.43 3.81629 56.707 4.375C56.984 4.93371 57.1225 5.59659 57.1225 6.36364ZM56.2702 6.36364C56.2702 5.7339 56.1649 5.20241 55.9542 4.76918C55.7459 4.33594 55.4629 4.00805 55.1055 3.78551C54.7504 3.56297 54.3526 3.4517 53.9123 3.4517C53.4719 3.4517 53.073 3.56297 52.7156 3.78551C52.3604 4.00805 52.0775 4.33594 51.8668 4.76918C51.6585 5.20241 51.5543 5.7339 51.5543 6.36364C51.5543 6.99337 51.6585 7.52486 51.8668 7.9581C52.0775 8.39134 52.3604 8.71922 52.7156 8.94176C53.073 9.1643 53.4719 9.27557 53.9123 9.27557C54.3526 9.27557 54.7504 9.1643 55.1055 8.94176C55.4629 8.71922 55.7459 8.39134 55.9542 7.9581C56.1649 7.52486 56.2702 6.99337 56.2702 6.36364ZM64.3704 2.72727V10H63.5181L59.555 4.28977H59.484V10H58.6033V2.72727H59.4556L63.4329 8.4517H63.5039V2.72727H64.3704ZM66.1326 10V2.72727H70.5218V3.50852H67.0133V5.96591H70.2946V6.74716H67.0133V9.21875H70.5787V10H66.1326Z" fill="#48A3D7"/>
<path d="M30.5372 20V15.6364H33.1707V16.1051H31.0656V17.5795H33.0344V18.0483H31.0656V19.5312H33.2048V20H30.5372ZM34.1231 20V15.6364H34.6515V19.5312H36.68V20H34.1231ZM37.4981 20V15.6364H40.1317V16.1051H38.0265V17.5795H39.9953V18.0483H38.0265V19.5312H40.1657V20H37.4981ZM44.5954 17H44.067C44.0358 16.848 43.9811 16.7145 43.903 16.5994C43.8263 16.4844 43.7325 16.3878 43.6217 16.3097C43.5123 16.2301 43.3909 16.1705 43.2574 16.1307C43.1238 16.0909 42.9846 16.071 42.8398 16.071C42.5756 16.071 42.3362 16.1378 42.1217 16.2713C41.9086 16.4048 41.7389 16.6016 41.6125 16.8615C41.4875 17.1214 41.425 17.4403 41.425 17.8182C41.425 18.196 41.4875 18.5149 41.6125 18.7749C41.7389 19.0348 41.9086 19.2315 42.1217 19.3651C42.3362 19.4986 42.5756 19.5653 42.8398 19.5653C42.9846 19.5653 43.1238 19.5455 43.2574 19.5057C43.3909 19.4659 43.5123 19.407 43.6217 19.3288C43.7325 19.2493 43.8263 19.152 43.903 19.0369C43.9811 18.9205 44.0358 18.7869 44.067 18.6364H44.5954C44.5557 18.8594 44.4832 19.0589 44.3781 19.2351C44.273 19.4112 44.1423 19.5611 43.9861 19.6847C43.8298 19.8068 43.6544 19.8999 43.4598 19.9638C43.2666 20.0277 43.0599 20.0597 42.8398 20.0597C42.4676 20.0597 42.1366 19.9688 41.8469 19.7869C41.5571 19.6051 41.3291 19.3466 41.1629 19.0114C40.9967 18.6761 40.9136 18.2784 40.9136 17.8182C40.9136 17.358 40.9967 16.9602 41.1629 16.625C41.3291 16.2898 41.5571 16.0312 41.8469 15.8494C42.1366 15.6676 42.4676 15.5767 42.8398 15.5767C43.0599 15.5767 43.2666 15.6087 43.4598 15.6726C43.6544 15.7365 43.8298 15.8303 43.9861 15.9538C44.1423 16.076 44.273 16.2251 44.3781 16.4013C44.4832 16.576 44.5557 16.7756 44.5954 17ZM45.2107 16.1051V15.6364H48.4834V16.1051H47.1112V20H46.5828V16.1051H45.2107ZM49.2989 20V15.6364H50.7733C51.1143 15.6364 51.3941 15.6946 51.6128 15.8111C51.8316 15.9261 51.9935 16.0845 52.0986 16.2862C52.2037 16.4879 52.2563 16.7173 52.2563 16.9744C52.2563 17.2315 52.2037 17.4595 52.0986 17.6584C51.9935 17.8572 51.8323 18.0135 51.615 18.1271C51.3976 18.2393 51.1199 18.2955 50.7819 18.2955H49.5887V17.8182H50.7648C50.9978 17.8182 51.1853 17.7841 51.3273 17.7159C51.4708 17.6477 51.5745 17.5511 51.6384 17.4261C51.7037 17.2997 51.7364 17.1491 51.7364 16.9744C51.7364 16.7997 51.7037 16.647 51.6384 16.5163C51.5731 16.3857 51.4687 16.2848 51.3252 16.2138C51.1817 16.1413 50.9921 16.1051 50.7563 16.1051H49.8273V20H49.2989ZM51.3529 18.0398L52.4268 20H51.8131L50.7563 18.0398H51.3529ZM53.6652 15.6364V20H53.1368V15.6364H53.6652ZM58.2361 17H57.7077C57.6764 16.848 57.6217 16.7145 57.5436 16.5994C57.4669 16.4844 57.3731 16.3878 57.2623 16.3097C57.153 16.2301 57.0315 16.1705 56.898 16.1307C56.7645 16.0909 56.6253 16.071 56.4804 16.071C56.2162 16.071 55.9768 16.1378 55.7623 16.2713C55.5493 16.4048 55.3795 16.6016 55.2531 16.8615C55.1281 17.1214 55.0656 17.4403 55.0656 17.8182C55.0656 18.196 55.1281 18.5149 55.2531 18.7749C55.3795 19.0348 55.5493 19.2315 55.7623 19.3651C55.9768 19.4986 56.2162 19.5653 56.4804 19.5653C56.6253 19.5653 56.7645 19.5455 56.898 19.5057C57.0315 19.4659 57.153 19.407 57.2623 19.3288C57.3731 19.2493 57.4669 19.152 57.5436 19.0369C57.6217 18.9205 57.6764 18.7869 57.7077 18.6364H58.2361C58.1963 18.8594 58.1238 19.0589 58.0187 19.2351C57.9136 19.4112 57.7829 19.5611 57.6267 19.6847C57.4704 19.8068 57.295 19.8999 57.1004 19.9638C56.9072 20.0277 56.7006 20.0597 56.4804 20.0597C56.1082 20.0597 55.7773 19.9688 55.4875 19.7869C55.1977 19.6051 54.9697 19.3466 54.8035 19.0114C54.6373 18.6761 54.5542 18.2784 54.5542 17.8182C54.5542 17.358 54.6373 16.9602 54.8035 16.625C54.9697 16.2898 55.1977 16.0312 55.4875 15.8494C55.7773 15.6676 56.1082 15.5767 56.4804 15.5767C56.7006 15.5767 56.9072 15.6087 57.1004 15.6726C57.295 15.7365 57.4704 15.8303 57.6267 15.9538C57.7829 16.076 57.9136 16.2251 58.0187 16.4013C58.1238 16.576 58.1963 16.7756 58.2361 17ZM59.2689 20H58.7149L60.3172 15.6364H60.8627L62.4649 20H61.911L60.607 16.3267H60.5729L59.2689 20ZM59.4735 18.2955H61.7064V18.7642H59.4735V18.2955ZM63.1446 20V15.6364H63.673V19.5312H65.7014V20H63.1446ZM33.6296 23.7273C33.604 23.5114 33.5004 23.3438 33.3185 23.2244C33.1367 23.1051 32.9137 23.0455 32.6495 23.0455C32.4563 23.0455 32.2873 23.0767 32.1424 23.1392C31.9989 23.2017 31.8867 23.2876 31.8058 23.397C31.7262 23.5064 31.6864 23.6307 31.6864 23.7699C31.6864 23.8864 31.7141 23.9865 31.7695 24.0703C31.8263 24.1527 31.8988 24.2216 31.9869 24.277C32.0749 24.331 32.1673 24.3757 32.2638 24.4112C32.3604 24.4453 32.4492 24.473 32.5302 24.4943L32.9734 24.6136C33.087 24.6435 33.2134 24.6847 33.3526 24.7372C33.4933 24.7898 33.6275 24.8615 33.7553 24.9524C33.8846 25.0419 33.9911 25.157 34.0749 25.2976C34.1587 25.4382 34.2006 25.6108 34.2006 25.8153C34.2006 26.0511 34.1388 26.2642 34.0153 26.4545C33.8931 26.6449 33.7141 26.7962 33.4783 26.9084C33.244 27.0206 32.9592 27.0767 32.6239 27.0767C32.3114 27.0767 32.0408 27.0263 31.8121 26.9254C31.5849 26.8246 31.4059 26.6839 31.2752 26.5036C31.146 26.3232 31.0728 26.1136 31.0558 25.875H31.6012C31.6154 26.0398 31.6708 26.1761 31.7674 26.2841C31.8654 26.3906 31.989 26.4702 32.1381 26.5227C32.2887 26.5739 32.4506 26.5994 32.6239 26.5994C32.8256 26.5994 33.0067 26.5668 33.1673 26.5014C33.3278 26.4347 33.4549 26.3423 33.5487 26.2244C33.6424 26.1051 33.6893 25.9659 33.6893 25.8068C33.6893 25.6619 33.6488 25.544 33.5678 25.4531C33.4869 25.3622 33.3803 25.2884 33.2482 25.2315C33.1161 25.1747 32.9734 25.125 32.82 25.0824L32.283 24.929C31.9421 24.831 31.6722 24.6911 31.4734 24.5092C31.2745 24.3274 31.1751 24.0895 31.1751 23.7955C31.1751 23.5511 31.2411 23.3381 31.3732 23.1562C31.5067 22.973 31.6857 22.831 31.9102 22.7301C32.136 22.6278 32.3881 22.5767 32.6665 22.5767C32.9478 22.5767 33.1978 22.6271 33.4165 22.728C33.6353 22.8274 33.8086 22.9638 33.9364 23.1371C34.0657 23.3104 34.1339 23.5071 34.141 23.7273H33.6296ZM38.7512 24.8182C38.7512 25.2784 38.6681 25.6761 38.502 26.0114C38.3358 26.3466 38.1078 26.6051 37.818 26.7869C37.5282 26.9688 37.1973 27.0597 36.8251 27.0597C36.4529 27.0597 36.122 26.9688 35.8322 26.7869C35.5424 26.6051 35.3145 26.3466 35.1483 26.0114C34.9821 25.6761 34.899 25.2784 34.899 24.8182C34.899 24.358 34.9821 23.9602 35.1483 23.625C35.3145 23.2898 35.5424 23.0312 35.8322 22.8494C36.122 22.6676 36.4529 22.5767 36.8251 22.5767C37.1973 22.5767 37.5282 22.6676 37.818 22.8494C38.1078 23.0312 38.3358 23.2898 38.502 23.625C38.6681 23.9602 38.7512 24.358 38.7512 24.8182ZM38.2399 24.8182C38.2399 24.4403 38.1767 24.1214 38.0502 23.8615C37.9252 23.6016 37.7555 23.4048 37.541 23.2713C37.3279 23.1378 37.0893 23.071 36.8251 23.071C36.5609 23.071 36.3216 23.1378 36.1071 23.2713C35.894 23.4048 35.7243 23.6016 35.5978 23.8615C35.4728 24.1214 35.4103 24.4403 35.4103 24.8182C35.4103 25.196 35.4728 25.5149 35.5978 25.7749C35.7243 26.0348 35.894 26.2315 36.1071 26.3651C36.3216 26.4986 36.5609 26.5653 36.8251 26.5653C37.0893 26.5653 37.3279 26.4986 37.541 26.3651C37.7555 26.2315 37.9252 26.0348 38.0502 25.7749C38.1767 25.5149 38.2399 25.196 38.2399 24.8182ZM39.6397 27V22.6364H40.1681V26.5312H42.1966V27H39.6397ZM45.8784 22.6364H46.4068V25.5256C46.4068 25.8239 46.3365 26.0902 46.1958 26.3246C46.0566 26.5575 45.8599 26.7415 45.6056 26.8764C45.3514 27.0099 45.0531 27.0767 44.7108 27.0767C44.3684 27.0767 44.0701 27.0099 43.8159 26.8764C43.5616 26.7415 43.3642 26.5575 43.2235 26.3246C43.0843 26.0902 43.0147 25.8239 43.0147 25.5256V22.6364H43.5431V25.483C43.5431 25.696 43.59 25.8857 43.6838 26.0518C43.7775 26.2166 43.911 26.3466 44.0843 26.4418C44.2591 26.5355 44.4679 26.5824 44.7108 26.5824C44.9537 26.5824 45.1625 26.5355 45.3372 26.4418C45.5119 26.3466 45.6454 26.2166 45.7377 26.0518C45.8315 25.8857 45.8784 25.696 45.8784 25.483V22.6364ZM47.2234 23.1051V22.6364H50.4961V23.1051H49.1239V27H48.5955V23.1051H47.2234ZM51.84 22.6364V27H51.3116V22.6364H51.84ZM56.5813 24.8182C56.5813 25.2784 56.4982 25.6761 56.332 26.0114C56.1658 26.3466 55.9379 26.6051 55.6481 26.7869C55.3583 26.9688 55.0273 27.0597 54.6552 27.0597C54.283 27.0597 53.9521 26.9688 53.6623 26.7869C53.3725 26.6051 53.1445 26.3466 52.9783 26.0114C52.8121 25.6761 52.729 25.2784 52.729 24.8182C52.729 24.358 52.8121 23.9602 52.9783 23.625C53.1445 23.2898 53.3725 23.0312 53.6623 22.8494C53.9521 22.6676 54.283 22.5767 54.6552 22.5767C55.0273 22.5767 55.3583 22.6676 55.6481 22.8494C55.9379 23.0312 56.1658 23.2898 56.332 23.625C56.4982 23.9602 56.5813 24.358 56.5813 24.8182ZM56.07 24.8182C56.07 24.4403 56.0067 24.1214 55.8803 23.8615C55.7553 23.6016 55.5856 23.4048 55.3711 23.2713C55.158 23.1378 54.9194 23.071 54.6552 23.071C54.391 23.071 54.1516 23.1378 53.9371 23.2713C53.7241 23.4048 53.5543 23.6016 53.4279 23.8615C53.3029 24.1214 53.2404 24.4403 53.2404 24.8182C53.2404 25.196 53.3029 25.5149 53.4279 25.7749C53.5543 26.0348 53.7241 26.2315 53.9371 26.3651C54.1516 26.4986 54.391 26.5653 54.6552 26.5653C54.9194 26.5653 55.158 26.4986 55.3711 26.3651C55.5856 26.2315 55.7553 26.0348 55.8803 25.7749C56.0067 25.5149 56.07 25.196 56.07 24.8182ZM60.93 22.6364V27H60.4187L58.0408 23.5739H57.9982V27H57.4698V22.6364H57.9812L60.3675 26.071H60.4102V22.6364H60.93ZM64.3738 23.7273C64.3482 23.5114 64.2445 23.3438 64.0627 23.2244C63.8809 23.1051 63.6578 23.0455 63.3936 23.0455C63.2005 23.0455 63.0314 23.0767 62.8865 23.1392C62.7431 23.2017 62.6309 23.2876 62.5499 23.397C62.4703 23.5064 62.4306 23.6307 62.4306 23.7699C62.4306 23.8864 62.4583 23.9865 62.5137 24.0703C62.5705 24.1527 62.6429 24.2216 62.731 24.277C62.8191 24.331 62.9114 24.3757 63.008 24.4112C63.1046 24.4453 63.1934 24.473 63.2743 24.4943L63.7175 24.6136C63.8311 24.6435 63.9576 24.6847 64.0968 24.7372C64.2374 24.7898 64.3716 24.8615 64.4995 24.9524C64.6287 25.0419 64.7353 25.157 64.8191 25.2976C64.9029 25.4382 64.9448 25.6108 64.9448 25.8153C64.9448 26.0511 64.883 26.2642 64.7594 26.4545C64.6373 26.6449 64.4583 26.7962 64.2225 26.9084C63.9881 27.0206 63.7033 27.0767 63.3681 27.0767C63.0556 27.0767 62.785 27.0263 62.5563 26.9254C62.329 26.8246 62.15 26.6839 62.0194 26.5036C61.8901 26.3232 61.8169 26.1136 61.7999 25.875H62.3453C62.3596 26.0398 62.415 26.1761 62.5115 26.2841C62.6096 26.3906 62.7331 26.4702 62.8823 26.5227C63.0328 26.5739 63.1948 26.5994 63.3681 26.5994C63.5698 26.5994 63.7509 26.5668 63.9114 26.5014C64.0719 26.4347 64.199 26.3423 64.2928 26.2244C64.3865 26.1051 64.4334 25.9659 64.4334 25.8068C64.4334 25.6619 64.3929 25.544 64.312 25.4531C64.231 25.3622 64.1245 25.2884 63.9924 25.2315C63.8603 25.1747 63.7175 25.125 63.5641 25.0824L63.0272 24.929C62.6863 24.831 62.4164 24.6911 62.2175 24.5092C62.0186 24.3274 61.9192 24.0895 61.9192 23.7955C61.9192 23.5511 61.9853 23.3381 62.1174 23.1562C62.2509 22.973 62.4299 22.831 62.6543 22.7301C62.8801 22.6278 63.1323 22.5767 63.4107 22.5767C63.6919 22.5767 63.9419 22.6271 64.1607 22.728C64.3794 22.8274 64.5527 22.9638 64.6806 23.1371C64.8098 23.3104 64.878 23.5071 64.8851 23.7273H64.3738Z" fill="#000000"/>
<defs>
<clipPath id="clip0_10_11">
<rect width="32" height="32" fill="white" transform="translate(0 16)"/>
</clipPath>
</defs>
</svg>
