<svg width="200" viewBox="0 0 80 57" fill="none" xmlns="http://www.w3.org/2000/svg">
<path d="M39 28.5V55H9C6.23858 55 4 52.7614 4 50V13C4 13 18.9322 13 28.5 13" stroke="#58090b" stroke-width="3"/>
<g clip-path="url(#clip0_10_11)">
<path d="M20.6667 37.6667H14L23.3333 19V29.6667H30L20.6667 48.3333V37.6667Z" fill="hsl(234, 39%, 14%)"/>
</g>
<path d="M2.6321 10V2.72727H5.54403C6.07907 2.72727 6.52533 2.80658 6.88281 2.9652C7.24029 3.12382 7.509 3.34399 7.68892 3.62571C7.86884 3.90507 7.95881 4.22704 7.95881 4.59162C7.95881 4.87571 7.90199 5.12547 7.78835 5.34091C7.67472 5.55398 7.51847 5.72917 7.3196 5.86648C7.12311 6.00142 6.8982 6.0973 6.64489 6.15412V6.22514C6.92188 6.23698 7.18111 6.3151 7.42259 6.45952C7.66643 6.60393 7.86411 6.80634 8.01562 7.06676C8.16714 7.32481 8.2429 7.63258 8.2429 7.99006C8.2429 8.37595 8.14702 8.72041 7.95526 9.02344C7.76586 9.3241 7.48532 9.56203 7.11364 9.73722C6.74195 9.91241 6.28385 10 5.73935 10H2.6321ZM4.16974 8.7429H5.4233C5.8518 8.7429 6.1643 8.66122 6.3608 8.49787C6.55729 8.33215 6.65554 8.11198 6.65554 7.83736C6.65554 7.63613 6.60701 7.45857 6.50994 7.30469C6.41288 7.1508 6.27438 7.03007 6.09446 6.94247C5.9169 6.85488 5.70502 6.81108 5.45881 6.81108H4.16974V8.7429ZM4.16974 5.7706H5.30966C5.52036 5.7706 5.70739 5.7339 5.87074 5.66051C6.03646 5.58475 6.16667 5.47822 6.26136 5.34091C6.35843 5.2036 6.40696 5.03906 6.40696 4.8473C6.40696 4.58452 6.31345 4.37263 6.12642 4.21165C5.94176 4.05066 5.67898 3.97017 5.33807 3.97017H4.16974V5.7706ZM9.24343 10V2.72727H10.7811V8.73224H13.899V10H9.24343ZM16.3564 10H14.7086L17.2193 2.72727H19.2008L21.7079 10H20.0602L18.2385 4.3892H18.1816L16.3564 10ZM16.2534 7.14134H20.1454V8.34162H16.2534V7.14134ZM28.6584 5.27344H27.103C27.0746 5.07221 27.0166 4.89347 26.929 4.73722C26.8414 4.5786 26.7289 4.44366 26.5916 4.33239C26.4543 4.22112 26.2957 4.13589 26.1158 4.0767C25.9382 4.01752 25.7453 3.98793 25.5369 3.98793C25.1605 3.98793 24.8326 4.08144 24.5533 4.26847C24.2739 4.45312 24.0573 4.72301 23.9034 5.07812C23.7495 5.43087 23.6726 5.85937 23.6726 6.36364C23.6726 6.8821 23.7495 7.31771 23.9034 7.67045C24.0597 8.0232 24.2775 8.28954 24.5568 8.46946C24.8362 8.64938 25.1593 8.73935 25.5263 8.73935C25.7322 8.73935 25.9228 8.71212 26.098 8.65767C26.2756 8.60322 26.433 8.52391 26.5703 8.41974C26.7076 8.31321 26.8213 8.18419 26.9112 8.03267C27.0036 7.88116 27.0675 7.70833 27.103 7.5142L28.6584 7.52131C28.6181 7.85511 28.5175 8.17708 28.3565 8.48722C28.1979 8.79498 27.9837 9.07079 27.7138 9.31463C27.4463 9.55611 27.1267 9.74787 26.755 9.88991C26.3857 10.0296 25.9678 10.0994 25.5014 10.0994C24.8527 10.0994 24.2727 9.95265 23.7614 9.65909C23.2524 9.36553 22.8499 8.94058 22.554 8.38423C22.2604 7.82789 22.1136 7.15436 22.1136 6.36364C22.1136 5.57055 22.2628 4.89583 22.5611 4.33949C22.8594 3.78314 23.2642 3.35937 23.7756 3.06818C24.2869 2.77462 24.8622 2.62784 25.5014 2.62784C25.9228 2.62784 26.3134 2.68703 26.6733 2.8054C27.0355 2.92377 27.3563 3.09659 27.6357 3.32386C27.915 3.54877 28.1423 3.82457 28.3175 4.15128C28.495 4.47798 28.6087 4.85204 28.6584 5.27344ZM29.761 10V2.72727H31.2987V5.93395H31.3945L34.0117 2.72727H35.8548L33.1559 5.98366L35.8867 10H34.0472L32.055 7.00994L31.2987 7.93324V10H29.761ZM42.9153 4.81889C42.8869 4.53243 42.765 4.3099 42.5495 4.15128C42.3341 3.99266 42.0417 3.91335 41.6724 3.91335C41.4215 3.91335 41.2096 3.94886 41.0368 4.01989C40.8639 4.08854 40.7314 4.18442 40.639 4.30753C40.5491 4.43063 40.5041 4.57031 40.5041 4.72656C40.4993 4.85677 40.5266 4.97041 40.5858 5.06747C40.6473 5.16454 40.7314 5.24858 40.8379 5.3196C40.9444 5.38826 41.0675 5.44863 41.2072 5.50071C41.3469 5.55043 41.496 5.59304 41.6547 5.62855L42.3081 5.7848C42.6253 5.85582 42.9165 5.95052 43.1816 6.06889C43.4468 6.18726 43.6764 6.33286 43.8706 6.50568C44.0647 6.6785 44.215 6.8821 44.3216 7.11648C44.4305 7.35085 44.4861 7.61955 44.4885 7.92259C44.4861 8.36766 44.3725 8.75355 44.1475 9.08026C43.925 9.40459 43.603 9.65672 43.1816 9.83665C42.7626 10.0142 42.2572 10.103 41.6653 10.103C41.0782 10.103 40.5668 10.013 40.1312 9.8331C39.698 9.65317 39.3594 9.38684 39.1156 9.03409C38.8741 8.67898 38.7475 8.23982 38.7356 7.71662H40.2235C40.2401 7.96046 40.31 8.16406 40.4331 8.32741C40.5585 8.4884 40.7254 8.61032 40.9338 8.69318C41.1445 8.77367 41.3824 8.81392 41.6475 8.81392C41.908 8.81392 42.1341 8.77604 42.3258 8.70028C42.5199 8.62453 42.6703 8.51918 42.7768 8.38423C42.8833 8.24929 42.9366 8.09422 42.9366 7.91903C42.9366 7.75568 42.8881 7.61837 42.791 7.5071C42.6963 7.39583 42.5566 7.30114 42.372 7.22301C42.1897 7.14489 41.966 7.07386 41.7008 7.00994L40.9089 6.81108C40.2958 6.66193 39.8116 6.42874 39.4565 6.11151C39.1014 5.79427 38.925 5.36695 38.9274 4.82955C38.925 4.3892 39.0422 4.0045 39.2789 3.67543C39.5181 3.34635 39.8459 3.08949 40.2626 2.90483C40.6793 2.72017 41.1528 2.62784 41.6831 2.62784C42.2228 2.62784 42.694 2.72017 43.0964 2.90483C43.5012 3.08949 43.8161 3.34635 44.041 3.67543C44.2659 4.0045 44.3819 4.38565 44.389 4.81889H42.9153ZM45.2457 3.99503V2.72727H51.2188V3.99503H48.9922V10H47.4723V3.99503H45.2457ZM58.5536 6.36364C58.5536 7.15672 58.4033 7.83144 58.1026 8.38778C57.8043 8.94413 57.3971 9.36908 56.881 9.66264C56.3673 9.95384 55.7897 10.0994 55.1481 10.0994C54.5018 10.0994 53.9218 9.95265 53.408 9.65909C52.8943 9.36553 52.4883 8.94058 52.19 8.38423C51.8917 7.82789 51.7425 7.15436 51.7425 6.36364C51.7425 5.57055 51.8917 4.89583 52.19 4.33949C52.4883 3.78314 52.8943 3.35937 53.408 3.06818C53.9218 2.77462 54.5018 2.62784 55.1481 2.62784C55.7897 2.62784 56.3673 2.77462 56.881 3.06818C57.3971 3.35937 57.8043 3.78314 58.1026 4.33949C58.4033 4.89583 58.5536 5.57055 58.5536 6.36364ZM56.9947 6.36364C56.9947 5.84991 56.9177 5.41667 56.7638 5.06392C56.6123 4.71117 56.3981 4.44366 56.1211 4.26136C55.8441 4.07907 55.5198 3.98793 55.1481 3.98793C54.7764 3.98793 54.4521 4.07907 54.1751 4.26136C53.8981 4.44366 53.6826 4.71117 53.5288 5.06392C53.3772 5.41667 53.3015 5.84991 53.3015 6.36364C53.3015 6.87737 53.3772 7.31061 53.5288 7.66335C53.6826 8.0161 53.8981 8.28362 54.1751 8.46591C54.4521 8.6482 54.7764 8.73935 55.1481 8.73935C55.5198 8.73935 55.8441 8.6482 56.1211 8.46591C56.3981 8.28362 56.6123 8.0161 56.7638 7.66335C56.9177 7.31061 56.9947 6.87737 56.9947 6.36364ZM65.7757 2.72727V10H64.4476L61.2836 5.42259H61.2303V10H59.6926V2.72727H61.0421L64.1813 7.30114H64.2452V2.72727H65.7757ZM67.0462 10V2.72727H71.9467V3.99503H68.5838V5.72798H71.6946V6.99574H68.5838V8.73224H71.9609V10H67.0462Z" fill="#48A3D7"/>
<path d="M29.7728 20V15.6364H32.7132V16.397H30.6954V17.4368H32.5619V18.1974H30.6954V19.2393H32.7217V20H29.7728ZM33.4466 20V15.6364H34.3692V19.2393H36.24V20H33.4466ZM36.8509 20V15.6364H39.7913V16.397H37.7735V17.4368H39.64V18.1974H37.7735V19.2393H39.7998V20H36.8509ZM44.3749 17.1641H43.4417C43.4246 17.0433 43.3898 16.9361 43.3373 16.8423C43.2847 16.7472 43.2172 16.6662 43.1349 16.5994C43.0525 16.5327 42.9573 16.4815 42.8493 16.446C42.7428 16.4105 42.627 16.3928 42.502 16.3928C42.2762 16.3928 42.0795 16.4489 41.9118 16.5611C41.7442 16.6719 41.6143 16.8338 41.5219 17.0469C41.4296 17.2585 41.3834 17.5156 41.3834 17.8182C41.3834 18.1293 41.4296 18.3906 41.5219 18.6023C41.6157 18.8139 41.7464 18.9737 41.914 19.0817C42.0816 19.1896 42.2755 19.2436 42.4956 19.2436C42.6192 19.2436 42.7336 19.2273 42.8387 19.1946C42.9452 19.1619 43.0397 19.1143 43.1221 19.0518C43.2045 18.9879 43.2726 18.9105 43.3266 18.8196C43.382 18.7287 43.4204 18.625 43.4417 18.5085L44.3749 18.5128C44.3508 18.7131 44.2904 18.9062 44.1938 19.0923C44.0986 19.277 43.9701 19.4425 43.8082 19.5888C43.6476 19.7337 43.4559 19.8487 43.2329 19.9339C43.0113 20.0178 42.7606 20.0597 42.4807 20.0597C42.0915 20.0597 41.7435 19.9716 41.4367 19.7955C41.1313 19.6193 40.8898 19.3643 40.7123 19.0305C40.5361 18.6967 40.4481 18.2926 40.4481 17.8182C40.4481 17.3423 40.5376 16.9375 40.7165 16.6037C40.8955 16.2699 41.1384 16.0156 41.4452 15.8409C41.752 15.6648 42.0972 15.5767 42.4807 15.5767C42.7336 15.5767 42.968 15.6122 43.1839 15.6832C43.4012 15.7543 43.5937 15.858 43.7613 15.9943C43.9289 16.1293 44.0653 16.2947 44.1704 16.4908C44.2769 16.6868 44.3451 16.9112 44.3749 17.1641ZM44.8703 16.397V15.6364H48.4541V16.397H47.1182V20H46.2062V16.397H44.8703ZM49.0443 20V15.6364H50.7659C51.0954 15.6364 51.3767 15.6953 51.6096 15.8132C51.844 15.9297 52.0223 16.0952 52.1444 16.3097C52.268 16.5227 52.3298 16.7734 52.3298 17.0618C52.3298 17.3516 52.2673 17.6009 52.1423 17.8097C52.0173 18.017 51.8362 18.1761 51.599 18.2869C51.3632 18.3977 51.0777 18.4531 50.7425 18.4531H49.5898V17.7116H50.5933C50.7694 17.7116 50.9157 17.6875 51.0322 17.6392C51.1487 17.5909 51.2354 17.5185 51.2922 17.4219C51.3504 17.3253 51.3795 17.2053 51.3795 17.0618C51.3795 16.9169 51.3504 16.7947 51.2922 16.6953C51.2354 16.5959 51.148 16.5206 51.0301 16.4695C50.9136 16.4169 50.7666 16.3906 50.589 16.3906H49.9669V20H49.0443ZM51.4008 18.0142L52.4854 20H51.4669L50.4058 18.0142H51.4008ZM53.9044 15.6364V20H52.9818V15.6364H53.9044ZM58.5136 17.1641H57.5803C57.5633 17.0433 57.5285 16.9361 57.4759 16.8423C57.4234 16.7472 57.3559 16.6662 57.2735 16.5994C57.1911 16.5327 57.096 16.4815 56.988 16.446C56.8815 16.4105 56.7657 16.3928 56.6407 16.3928C56.4149 16.3928 56.2181 16.4489 56.0505 16.5611C55.8829 16.6719 55.7529 16.8338 55.6606 17.0469C55.5683 17.2585 55.5221 17.5156 55.5221 17.8182C55.5221 18.1293 55.5683 18.3906 55.6606 18.6023C55.7544 18.8139 55.885 18.9737 56.0526 19.0817C56.2203 19.1896 56.4142 19.2436 56.6343 19.2436C56.7579 19.2436 56.8722 19.2273 56.9774 19.1946C57.0839 19.1619 57.1784 19.1143 57.2607 19.0518C57.3431 18.9879 57.4113 18.9105 57.4653 18.8196C57.5207 18.7287 57.559 18.625 57.5803 18.5085L58.5136 18.5128C58.4894 18.7131 58.4291 18.9062 58.3325 19.0923C58.2373 19.277 58.1088 19.4425 57.9468 19.5888C57.7863 19.7337 57.5945 19.8487 57.3715 19.9339C57.1499 20.0178 56.8992 20.0597 56.6194 20.0597C56.2302 20.0597 55.8822 19.9716 55.5754 19.7955C55.27 19.6193 55.0285 19.3643 54.8509 19.0305C54.6748 18.6967 54.5867 18.2926 54.5867 17.8182C54.5867 17.3423 54.6762 16.9375 54.8552 16.6037C55.0342 16.2699 55.2771 16.0156 55.5839 15.8409C55.8907 15.6648 56.2359 15.5767 56.6194 15.5767C56.8722 15.5767 57.1066 15.6122 57.3225 15.6832C57.5399 15.7543 57.7323 15.858 57.8999 15.9943C58.0676 16.1293 58.2039 16.2947 58.309 16.4908C58.4156 16.6868 58.4838 16.9112 58.5136 17.1641ZM59.8453 20H58.8566L60.363 15.6364H61.5519L63.0562 20H62.0676L60.9745 16.6335H60.9404L59.8453 20ZM59.7835 18.2848H62.1187V19.005H59.7835V18.2848ZM63.5814 20V15.6364H64.504V19.2393H66.3747V20H63.5814ZM33.18 23.8913C33.163 23.7195 33.0898 23.5859 32.9606 23.4908C32.8313 23.3956 32.6559 23.348 32.4343 23.348C32.2837 23.348 32.1566 23.3693 32.0529 23.4119C31.9492 23.4531 31.8697 23.5107 31.8143 23.5845C31.7603 23.6584 31.7333 23.7422 31.7333 23.8359C31.7305 23.9141 31.7468 23.9822 31.7823 24.0405C31.8192 24.0987 31.8697 24.1491 31.9336 24.1918C31.9975 24.233 32.0714 24.2692 32.1552 24.3004C32.239 24.3303 32.3285 24.3558 32.4237 24.3771L32.8157 24.4709C33.006 24.5135 33.1808 24.5703 33.3398 24.6413C33.4989 24.7124 33.6367 24.7997 33.7532 24.9034C33.8697 25.0071 33.9599 25.1293 34.0238 25.2699C34.0891 25.4105 34.1225 25.5717 34.1239 25.7536C34.1225 26.0206 34.0543 26.2521 33.9194 26.4482C33.7859 26.6428 33.5927 26.794 33.3398 26.902C33.0884 27.0085 32.7852 27.0618 32.43 27.0618C32.0778 27.0618 31.771 27.0078 31.5096 26.8999C31.2496 26.7919 31.0465 26.6321 30.9002 26.4205C30.7553 26.2074 30.6793 25.9439 30.6722 25.63H31.565C31.5749 25.7763 31.6168 25.8984 31.6907 25.9964C31.766 26.093 31.8661 26.1662 31.9911 26.2159C32.1175 26.2642 32.2603 26.2884 32.4194 26.2884C32.5756 26.2884 32.7113 26.2656 32.8263 26.2202C32.9428 26.1747 33.033 26.1115 33.0969 26.0305C33.1609 25.9496 33.1928 25.8565 33.1928 25.7514C33.1928 25.6534 33.1637 25.571 33.1055 25.5043C33.0487 25.4375 32.9648 25.3807 32.854 25.3338C32.7447 25.2869 32.6104 25.2443 32.4513 25.206L31.9762 25.0866C31.6083 24.9972 31.3178 24.8572 31.1048 24.6669C30.8917 24.4766 30.7859 24.2202 30.7873 23.8977C30.7859 23.6335 30.8562 23.4027 30.9982 23.2053C31.1417 23.0078 31.3384 22.8537 31.5884 22.7429C31.8384 22.6321 32.1225 22.5767 32.4407 22.5767C32.7646 22.5767 33.0472 22.6321 33.2887 22.7429C33.5316 22.8537 33.7205 23.0078 33.8555 23.2053C33.9904 23.4027 34.06 23.6314 34.0643 23.8913H33.18ZM38.7544 24.8182C38.7544 25.294 38.6642 25.6989 38.4838 26.0327C38.3049 26.3665 38.0605 26.6214 37.7509 26.7976C37.4426 26.9723 37.0961 27.0597 36.7111 27.0597C36.3233 27.0597 35.9753 26.9716 35.6671 26.7955C35.3588 26.6193 35.1152 26.3643 34.9363 26.0305C34.7573 25.6967 34.6678 25.2926 34.6678 24.8182C34.6678 24.3423 34.7573 23.9375 34.9363 23.6037C35.1152 23.2699 35.3588 23.0156 35.6671 22.8409C35.9753 22.6648 36.3233 22.5767 36.7111 22.5767C37.0961 22.5767 37.4426 22.6648 37.7509 22.8409C38.0605 23.0156 38.3049 23.2699 38.4838 23.6037C38.6642 23.9375 38.7544 24.3423 38.7544 24.8182ZM37.8191 24.8182C37.8191 24.5099 37.7729 24.25 37.6806 24.0384C37.5897 23.8267 37.4611 23.6662 37.2949 23.5568C37.1287 23.4474 36.9341 23.3928 36.7111 23.3928C36.4881 23.3928 36.2935 23.4474 36.1273 23.5568C35.9611 23.6662 35.8319 23.8267 35.7395 24.0384C35.6486 24.25 35.6032 24.5099 35.6032 24.8182C35.6032 25.1264 35.6486 25.3864 35.7395 25.598C35.8319 25.8097 35.9611 25.9702 36.1273 26.0795C36.2935 26.1889 36.4881 26.2436 36.7111 26.2436C36.9341 26.2436 37.1287 26.1889 37.2949 26.0795C37.4611 25.9702 37.5897 25.8097 37.6806 25.598C37.7729 25.3864 37.8191 25.1264 37.8191 24.8182ZM39.4379 27V22.6364H40.3604V26.2393H42.2312V27H39.4379ZM45.5375 22.6364H46.46V25.4702C46.46 25.7884 46.3841 26.0668 46.2321 26.3054C46.0815 26.544 45.8706 26.7301 45.5993 26.8636C45.3279 26.9957 45.0119 27.0618 44.6511 27.0618C44.2889 27.0618 43.9721 26.9957 43.7008 26.8636C43.4295 26.7301 43.2186 26.544 43.068 26.3054C42.9174 26.0668 42.8422 25.7884 42.8422 25.4702V22.6364H43.7647V25.3913C43.7647 25.5575 43.801 25.7053 43.8734 25.8345C43.9473 25.9638 44.051 26.0653 44.1845 26.1392C44.318 26.2131 44.4735 26.25 44.6511 26.25C44.8301 26.25 44.9856 26.2131 45.1177 26.1392C45.2512 26.0653 45.3542 25.9638 45.4267 25.8345C45.5005 25.7053 45.5375 25.5575 45.5375 25.3913V22.6364ZM47.0529 23.397V22.6364H50.6367V23.397H49.3008V27H48.3888V23.397H47.0529ZM52.1495 22.6364V27H51.2269V22.6364H52.1495ZM56.9185 24.8182C56.9185 25.294 56.8283 25.6989 56.6479 26.0327C56.4689 26.3665 56.2246 26.6214 55.915 26.7976C55.6067 26.9723 55.2601 27.0597 54.8752 27.0597C54.4874 27.0597 54.1394 26.9716 53.8311 26.7955C53.5229 26.6193 53.2793 26.3643 53.1003 26.0305C52.9213 25.6967 52.8319 25.2926 52.8319 24.8182C52.8319 24.3423 52.9213 23.9375 53.1003 23.6037C53.2793 23.2699 53.5229 23.0156 53.8311 22.8409C54.1394 22.6648 54.4874 22.5767 54.8752 22.5767C55.2601 22.5767 55.6067 22.6648 55.915 22.8409C56.2246 23.0156 56.4689 23.2699 56.6479 23.6037C56.8283 23.9375 56.9185 24.3423 56.9185 24.8182ZM55.9831 24.8182C55.9831 24.5099 55.937 24.25 55.8446 24.0384C55.7537 23.8267 55.6252 23.6662 55.459 23.5568C55.2928 23.4474 55.0982 23.3928 54.8752 23.3928C54.6522 23.3928 54.4576 23.4474 54.2914 23.5568C54.1252 23.6662 53.9959 23.8267 53.9036 24.0384C53.8127 24.25 53.7672 24.5099 53.7672 24.8182C53.7672 25.1264 53.8127 25.3864 53.9036 25.598C53.9959 25.8097 54.1252 25.9702 54.2914 26.0795C54.4576 26.1889 54.6522 26.2436 54.8752 26.2436C55.0982 26.2436 55.2928 26.1889 55.459 26.0795C55.6252 25.9702 55.7537 25.8097 55.8446 25.598C55.937 25.3864 55.9831 25.1264 55.9831 24.8182ZM61.2518 22.6364V27H60.4549L58.5565 24.2536H58.5245V27H57.6019V22.6364H58.4116L60.2951 25.3807H60.3335V22.6364H61.2518ZM64.3812 23.8913C64.3642 23.7195 64.291 23.5859 64.1618 23.4908C64.0325 23.3956 63.8571 23.348 63.6355 23.348C63.4849 23.348 63.3578 23.3693 63.2541 23.4119C63.1504 23.4531 63.0708 23.5107 63.0154 23.5845C62.9615 23.6584 62.9345 23.7422 62.9345 23.8359C62.9316 23.9141 62.948 23.9822 62.9835 24.0405C63.0204 24.0987 63.0708 24.1491 63.1348 24.1918C63.1987 24.233 63.2725 24.2692 63.3564 24.3004C63.4402 24.3303 63.5297 24.3558 63.6248 24.3771L64.0169 24.4709C64.2072 24.5135 64.3819 24.5703 64.541 24.6413C64.7001 24.7124 64.8379 24.7997 64.9544 24.9034C65.0708 25.0071 65.161 25.1293 65.225 25.2699C65.2903 25.4105 65.3237 25.5717 65.3251 25.7536C65.3237 26.0206 65.2555 26.2521 65.1206 26.4482C64.987 26.6428 64.7939 26.794 64.541 26.902C64.2896 27.0085 63.9863 27.0618 63.6312 27.0618C63.2789 27.0618 62.9721 27.0078 62.7108 26.8999C62.4508 26.7919 62.2477 26.6321 62.1014 26.4205C61.9565 26.2074 61.8805 25.9439 61.8734 25.63H62.7662C62.7761 25.7763 62.818 25.8984 62.8919 25.9964C62.9672 26.093 63.0673 26.1662 63.1923 26.2159C63.3187 26.2642 63.4615 26.2884 63.6206 26.2884C63.7768 26.2884 63.9125 26.2656 64.0275 26.2202C64.144 26.1747 64.2342 26.1115 64.2981 26.0305C64.362 25.9496 64.394 25.8565 64.394 25.7514C64.394 25.6534 64.3649 25.571 64.3066 25.5043C64.2498 25.4375 64.166 25.3807 64.0552 25.3338C63.9458 25.2869 63.8116 25.2443 63.6525 25.206L63.1774 25.0866C62.8095 24.9972 62.519 24.8572 62.3059 24.6669C62.0929 24.4766 61.987 24.2202 61.9885 23.8977C61.987 23.6335 62.0574 23.4027 62.1994 23.2053C62.3429 23.0078 62.5396 22.8537 62.7896 22.7429C63.0396 22.6321 63.3237 22.5767 63.6419 22.5767C63.9657 22.5767 64.2484 22.6321 64.4899 22.7429C64.7328 22.8537 64.9217 23.0078 65.0566 23.2053C65.1916 23.4027 65.2612 23.6314 65.2654 23.8913H64.3812Z" fill="hsl(234, 39%, 14%)"/>
<defs>
<clipPath id="clip0_10_11">
<rect width="32" height="32" fill="white" transform="translate(0 16)"/>
</clipPath>
</defs>
</svg>
