<svg width="100" xmlns="http://www.w3.org/2000/svg" viewBox="0 0 613.41 240.85"><path fill="#005e55" class="cls-1" d="M281,291.73H263V277.21H315.5v14.52H297.56V337H281Z" transform="translate(-89.42 -185.58)" ></path><path fill="#005e55" class="cls-1" d="M317.23,307.24v-.17c0-17.18,13.84-31.1,32.3-31.1s32.13,13.75,32.13,30.93v.17c0,17.17-13.85,31.1-32.3,31.1S317.23,324.42,317.23,307.24Zm47.51,0v-.17c0-8.63-6.24-16.15-15.38-16.15s-15.13,7.35-15.13,16v.17c0,8.63,6.24,16.15,15.3,16.15S364.74,315.87,364.74,307.24Z" transform="translate(-89.42 -185.58)" ></path><path fill="#005e55" class="cls-1" d="M389.59,277.16h28.28c9.14,0,15.46,2.4,19.48,6.5,3.51,3.41,5.3,8,5.3,13.92v.18c0,9.14-4.87,15.2-12.31,18.37L444.61,337H425.47l-12-18.12h-7.27V337H389.59Zm27.51,28.71c5.64,0,8.89-2.73,8.89-7.09v-.17c0-4.7-3.42-7.09-9-7.09H406.16v14.35Z" transform="translate(-89.42 -185.58)" ></path><path fill="#005e55" class="cls-1" d="M448,307.24v-.17c0-17.18,13.84-31.1,32.3-31.1s32.13,13.75,32.13,30.93v.17c0,17.17-13.84,31.1-32.3,31.1S448,324.42,448,307.24Zm47.51,0v-.17c0-8.63-6.24-16.15-15.38-16.15S465,298.27,465,306.9v.17c0,8.63,6.24,16.15,15.3,16.15S495.5,315.87,495.5,307.24Z" transform="translate(-89.42 -185.58)" ></path><path fill="#005e55" class="cls-1" d="M199.58,351.89h16.58v22.39h21.28V351.89H254V411.7H237.44V389H216.16V411.7H199.58Z" transform="translate(-89.42 -185.58)" ></path><path fill="#005e55" class="cls-1" d="M280.81,389.31l-22.73-37.42H277l12.31,21.79,12.39-21.79H320.2l-22.73,37.17V411.7H280.81Z" transform="translate(-89.42 -185.58)" ></path><path fill="#005e55" class="cls-1" d="M325.61,351.89h23.07c21.36,0,33.75,12.3,33.75,29.56v.17c0,17.26-12.56,30.08-34.09,30.08H325.61ZM348.94,397c9.91,0,16.49-5.46,16.49-15.12v-.17c0-9.57-6.58-15.13-16.49-15.13h-6.75V397Z" transform="translate(-89.42 -185.58)" ></path><path fill="#005e55" class="cls-1" d="M389.59,351.89h28.28c9.14,0,15.46,2.39,19.48,6.49,3.51,3.42,5.3,8,5.3,13.93v.17c0,9.14-4.87,15.21-12.31,18.37l14.27,20.85H425.47l-12-18.11h-7.27V411.7H389.59ZM417.1,380.6c5.64,0,8.89-2.74,8.89-7.09v-.17c0-4.71-3.42-7.1-9-7.1H406.16V380.6Z" transform="translate(-89.42 -185.58)" ></path><path fill="#005e55" class="cls-1" d="M448,382v-.17c0-17.17,13.84-31.1,32.3-31.1s32.13,13.76,32.13,30.93v.17c0,17.18-13.84,31.11-32.3,31.11S448,399.14,448,382Zm47.51,0v-.17c0-8.62-6.24-16.15-15.38-16.15S465,373,465,381.62v.17c0,8.63,6.24,16.15,15.3,16.15S495.5,390.6,495.5,382Z" transform="translate(-89.42 -185.58)" ></path><path fill="#efb02d" class="cls-2" d="M89.42,281.37l75.31-11.94L151.42,290.6Z" transform="translate(-89.42 -185.58)" ></path><path fill="#efb02d" class="cls-2" d="M125.64,200.67l52,55.76-25,.8Z" transform="translate(-89.42 -185.58)" ></path><path fill="#efb02d" class="cls-2" d="M212.8,185.58l-17.13,74.3L181,239.6Z" transform="translate(-89.42 -185.58)" ></path><path fill="#efb02d" class="cls-2" d="M274.06,249.39l-71.18,27.34,8.62-23.47Z" transform="translate(-89.42 -185.58)" ></path><path fill="#efb02d" class="cls-2" d="M255.41,335.86l-62.47-43.72,24.27-6Z" transform="translate(-89.42 -185.58)" ></path><path fill="#efb02d" class="cls-2" d="M173.29,368.75l1.31-76.24,18.53,16.79Z" transform="translate(-89.42 -185.58)" ></path><path class="cls-3" d="M159.11,302.6" transform="translate(-89.42 -185.58)" ></path><path fill="#efb02d" class="cls-2" d="M162.39,304.77a2.35,2.35,0,0,0-2.35-2.34,4.73,4.73,0,0,0-.82.13,5.63,5.63,0,0,0-1.3.68c-6.61,4.46-26.31,27.41-37,48.37a168.33,168.33,0,0,0-18.07,74.81c1.65-10.1,7.51-39.61,23.08-68.94,14.46-27.18,27.74-42,33.42-48.36,1.41-1.56,2.14-2.38,2.54-2.93A2.35,2.35,0,0,0,162.39,304.77Z" transform="translate(-89.42 -185.58)" ></path><path fill="#005e55" class="cls-1" d="M602.16,291.73H584.21V277.21h52.47v14.52H618.73V337H602.16Z" transform="translate(-89.42 -185.58)" ></path><path fill="#005e55" class="cls-1" d="M638.4,307.24v-.17c0-17.18,13.84-31.1,32.3-31.1s32.13,13.75,32.13,30.93v.17c0,17.17-13.84,31.1-32.3,31.1S638.4,324.42,638.4,307.24Zm47.51,0v-.17c0-8.63-6.24-16.15-15.38-16.15s-15.13,7.35-15.13,16v.17c0,8.63,6.24,16.15,15.3,16.15S685.91,315.87,685.91,307.24Z" transform="translate(-89.42 -185.58)" ></path><path fill="#005e55" class="cls-1" d="M520.35,277.16h15.46l24.61,31.62V277.16h16.41V337H562.3l-25.55-32.82V337h-16.4Z" transform="translate(-89.42 -185.58)" ></path><path fill="#005e55" class="cls-1" d="M520.71,359v0a8.14,8.14,0,1,1,16.28-.05V359a8.14,8.14,0,1,1-16.28,0Zm15.34,0v-.05a7.16,7.16,0,0,0-7.2-7.25,7.23,7.23,0,0,0-7.21,7.3v0a7.21,7.21,0,1,0,14.41,0Zm-10.57-4.4h4c2,0,3.42.89,3.42,2.81A2.59,2.59,0,0,1,531,360l2.15,3h-2.48l-1.82-2.67h-1.31V363h-2.06Zm3.83,4.12c.94,0,1.46-.47,1.46-1.17s-.56-1.17-1.46-1.17h-1.77v2.34Z" transform="translate(-89.42 -185.58)"></path></svg>